<?xml version="1.0" standalone="no"?>
<!DOCTYPE svg PUBLIC "-//W3C//DTD SVG 20010904//EN"
 "http://www.w3.org/TR/2001/REC-SVG-20010904/DTD/svg10.dtd">
<svg version="1.0" xmlns="http://www.w3.org/2000/svg"
 width="552.000000pt" height="552.000000pt" viewBox="0 0 552.000000 552.000000"
 preserveAspectRatio="xMidYMid meet">
<metadata>
Created by potrace 1.14, written by Peter Selinger 2001-2017
</metadata>
<g transform="translate(0.000000,552.000000) scale(0.100000,-0.100000)"
fill="#000000" stroke="none">
<path d="M2757 5494 c-1 -1 -56 -5 -122 -8 -116 -6 -190 -12 -190 -16 0 -1
-20 -3 -45 -4 -25 -1 -58 -5 -75 -9 -37 -8 -106 -19 -122 -20 -7 0 -13 -4 -13
-8 0 -4 -6 -6 -12 -6 -29 3 -108 -15 -108 -24 0 -6 -4 -8 -9 -5 -5 3 -22 2
-37 -3 -16 -5 -54 -17 -84 -26 -67 -19 -212 -75 -224 -86 -11 -10 32 -51 46
-43 6 4 8 3 5 -3 -4 -6 10 -33 31 -59 51 -65 73 -105 106 -192 18 -48 32 -70
39 -65 7 4 18 8 26 10 8 1 17 7 21 13 4 7 10 11 14 10 17 -4 86 13 86 21 0 6
4 7 10 4 5 -3 18 -1 28 4 10 5 32 12 48 15 16 2 29 5 29 6 0 2 9 4 20 6 29 4
60 12 60 15 0 1 11 3 25 4 14 1 39 5 55 9 17 3 48 8 70 11 22 3 58 8 80 11 62
9 391 10 475 1 109 -11 159 -19 246 -38 32 -6 67 -12 77 -11 9 0 17 -3 17 -7
0 -4 28 -13 63 -20 34 -8 67 -17 72 -21 6 -4 24 -10 40 -14 17 -4 44 -13 60
-21 17 -7 46 -18 65 -26 19 -7 62 -25 94 -41 33 -15 65 -28 73 -28 7 0 13 -4
13 -8 0 -5 24 -19 53 -33 28 -13 57 -27 62 -32 30 -23 87 -57 95 -57 6 0 10
-5 10 -12 0 -6 3 -9 6 -5 4 3 12 1 19 -6 7 -7 23 -19 35 -27 12 -8 30 -22 40
-30 10 -8 28 -22 40 -30 12 -8 29 -22 38 -30 9 -8 32 -28 51 -43 119 -94 330
-328 402 -443 11 -19 26 -31 31 -28 7 5 8 2 3 -6 -4 -7 -4 -15 1 -19 12 -8 44
-61 51 -83 3 -10 9 -18 14 -18 5 0 9 -6 9 -14 0 -7 9 -25 20 -39 11 -14 20
-32 20 -41 0 -9 5 -16 10 -16 6 0 10 -4 10 -9 0 -5 13 -38 30 -73 29 -64 52
-119 54 -128 1 -3 4 -9 7 -15 8 -12 83 -257 81 -262 0 -2 4 -17 9 -35 5 -18
12 -49 15 -68 8 -45 12 -65 14 -65 1 0 3 -13 5 -30 1 -16 6 -55 10 -85 9 -74
13 -124 16 -190 1 -30 7 -61 13 -69 8 -11 8 -13 0 -8 -8 5 -12 -19 -14 -81 -4
-174 -5 -192 -10 -192 -3 0 -6 -19 -8 -43 -1 -23 -7 -57 -12 -75 -6 -21 -5
-30 2 -26 7 4 7 0 0 -12 -9 -18 -17 -52 -27 -117 -3 -15 -9 -36 -15 -47 -5
-10 -10 -30 -10 -44 0 -14 -4 -27 -9 -30 -5 -3 -12 -23 -16 -43 -17 -93 -205
-500 -236 -511 -5 -2 -7 -7 -4 -12 3 -4 -2 -13 -10 -20 -8 -7 -15 -17 -15 -22
0 -5 -7 -16 -15 -25 -8 -8 -12 -19 -9 -25 4 -6 3 -8 -2 -5 -6 3 -21 -12 -34
-34 -14 -21 -29 -39 -34 -39 -4 0 -6 -9 -3 -19 3 -13 1 -18 -8 -14 -8 2 -18
-5 -25 -16 -20 -39 -252 -277 -320 -331 -71 -55 -79 -63 -74 -72 3 -5 1 -7 -4
-6 -12 4 -91 -44 -92 -54 0 -5 -7 -8 -15 -8 -8 0 -15 -4 -15 -8 0 -5 -27 -23
-60 -42 -33 -19 -60 -38 -60 -42 0 -5 -4 -7 -9 -4 -5 3 -14 0 -20 -8 -7 -8
-23 -17 -36 -20 -14 -4 -25 -11 -25 -17 0 -6 -4 -8 -9 -4 -5 3 -17 -2 -25 -11
-9 -8 -16 -13 -16 -10 0 5 -81 -32 -140 -63 -9 -5 -30 -12 -48 -15 -17 -4 -34
-12 -37 -17 -4 -5 -12 -9 -20 -9 -8 0 -26 -5 -42 -12 -34 -14 -37 -15 -92 -28
-24 -6 -49 -14 -55 -17 -6 -4 -17 -8 -26 -8 -8 -1 -40 -7 -70 -14 -67 -14 -82
-17 -140 -26 -25 -3 -58 -9 -75 -12 -89 -14 -354 -19 -480 -7 -44 4 -93 8
-110 10 -16 1 -30 3 -30 4 0 1 -9 3 -20 5 -64 9 -107 18 -160 31 -33 8 -70 16
-82 18 -12 3 -31 10 -42 16 -12 6 -21 8 -21 6 0 -3 -19 2 -42 10 -24 9 -47 17
-53 18 -16 5 -47 17 -92 37 -24 10 -47 19 -53 19 -5 0 -25 9 -45 20 -20 11
-42 20 -49 20 -7 0 -19 7 -26 15 -7 9 -15 13 -18 10 -3 -3 -14 2 -24 12 -10 9
-18 13 -18 8 0 -4 -7 -2 -15 5 -17 14 -67 44 -105 62 -14 7 -27 15 -30 18 -24
24 -102 70 -112 64 -6 -4 -8 -3 -4 4 8 13 -48 55 -59 44 -5 -4 -5 -1 -1 6 4 6
3 12 -1 12 -5 0 -29 18 -53 40 -25 22 -51 40 -59 40 -8 0 -12 2 -9 6 8 7 -102
110 -114 106 -5 -1 -7 2 -4 7 4 5 1 13 -6 18 -12 7 -128 138 -153 171 -5 7
-18 22 -28 33 -9 10 -17 24 -17 29 0 6 -4 10 -10 10 -5 0 -10 5 -10 10 0 6 -4
16 -10 23 -55 68 -130 186 -130 205 0 6 -3 12 -7 14 -5 2 -19 26 -33 53 -13
28 -28 53 -33 56 -5 3 -8 8 -7 10 1 4 -10 35 -32 87 -6 15 -11 30 -10 34 1 3
-5 11 -13 18 -7 6 -11 18 -8 26 3 8 -1 14 -8 14 -7 0 -10 2 -7 5 3 3 -6 36
-19 73 -13 37 -26 74 -28 82 -1 8 -11 44 -20 80 -10 36 -19 74 -21 85 -2 11
-8 47 -14 80 -7 33 -13 74 -15 90 -2 17 -4 30 -5 30 -11 0 -21 521 -11 540 6
12 10 28 15 70 2 17 6 46 10 65 3 19 8 46 10 60 2 14 9 45 16 70 19 69 23 93
24 122 1 14 4 24 8 22 11 -7 21 43 12 58 -4 7 -3 10 1 5 5 -4 24 34 42 85 40
112 141 321 194 401 22 32 39 63 39 68 0 5 4 9 9 9 15 0 22 30 11 48 -5 10
-10 13 -10 9 0 -13 -78 50 -137 110 -54 56 -113 134 -113 151 0 5 -6 15 -14
21 -10 9 -15 8 -20 -1 -3 -7 -14 -24 -24 -38 -9 -14 -26 -41 -37 -59 -11 -18
-30 -45 -42 -59 -13 -15 -23 -32 -23 -39 0 -6 -6 -18 -13 -25 -14 -13 -148
-263 -147 -273 0 -3 -7 -19 -15 -35 -9 -17 -12 -30 -8 -30 5 0 3 -4 -3 -8 -8
-6 -47 -94 -49 -112 0 -3 -3 -9 -6 -15 -4 -5 -10 -26 -14 -45 -4 -19 -11 -40
-16 -45 -4 -6 -9 -22 -11 -35 -2 -14 -6 -29 -10 -35 -3 -5 -16 -53 -27 -105
-12 -52 -27 -113 -32 -135 -5 -22 -11 -56 -14 -75 -2 -19 -4 -35 -5 -35 -1 0
-3 -13 -5 -30 -23 -176 -29 -323 -14 -341 10 -12 9 -13 -3 -9 -11 5 -14 -4
-11 -42 1 -26 5 -95 7 -153 7 -132 13 -191 32 -288 8 -42 17 -90 19 -107 15
-83 50 -215 58 -215 4 0 6 -4 3 -9 -10 -15 81 -256 95 -253 10 3 10 0 -1 -12
-8 -11 -9 -16 -1 -16 6 0 11 -5 11 -11 0 -17 52 -132 68 -151 8 -10 12 -18 8
-18 -3 0 4 -17 17 -38 13 -20 30 -52 38 -70 8 -17 17 -32 21 -32 5 0 8 -4 8
-10 0 -14 123 -200 132 -200 4 0 8 -7 8 -15 0 -7 6 -18 12 -22 7 -4 18 -17 25
-28 6 -11 16 -19 23 -17 6 1 9 -2 5 -8 -9 -14 14 -42 28 -33 5 3 7 1 4 -4 -4
-6 3 -21 14 -34 49 -59 147 -165 174 -190 17 -16 64 -60 105 -99 42 -40 80
-68 88 -65 7 2 11 1 8 -4 -3 -4 6 -18 19 -29 14 -12 25 -19 25 -15 0 4 7 -3
16 -15 8 -12 19 -22 24 -22 9 0 35 -19 64 -46 17 -16 60 -39 69 -36 4 1 7 -2
7 -7 0 -9 125 -91 140 -91 4 0 10 -5 12 -11 2 -6 15 -12 30 -12 14 -1 26 -6
25 -11 -1 -5 12 -14 28 -20 17 -6 36 -17 43 -23 13 -12 27 -17 45 -14 4 0 7
-3 7 -8 0 -5 10 -13 23 -17 12 -4 51 -20 86 -36 36 -16 73 -30 83 -31 10 -1
18 -5 18 -9 0 -4 11 -8 25 -8 14 0 25 -4 25 -8 0 -5 6 -9 13 -9 6 0 48 -13 92
-27 75 -26 335 -88 352 -85 4 1 10 0 13 -1 3 -1 19 -3 35 -5 17 -2 46 -6 65
-10 19 -3 59 -7 87 -8 29 -1 53 -4 53 -7 0 -7 385 -4 450 4 30 4 71 9 91 12
20 2 54 7 75 9 21 2 50 7 64 10 14 3 41 8 60 12 19 4 37 8 40 8 97 21 127 28
135 33 5 3 16 7 25 7 14 1 79 20 110 32 8 4 18 5 23 5 4 -1 7 3 7 9 0 5 4 7
10 4 5 -3 23 1 40 10 16 8 30 13 30 9 0 -3 11 1 25 10 13 9 29 16 35 16 7 0
44 16 84 35 40 19 78 35 85 35 6 0 11 4 11 10 0 5 3 9 8 8 18 -4 63 23 56 34
-4 7 -3 8 5 4 7 -5 38 8 72 28 33 20 65 36 70 36 5 0 9 5 9 10 0 6 5 10 11 10
6 0 40 20 76 45 35 25 68 45 72 45 5 0 12 7 15 16 4 9 9 14 13 11 3 -4 16 4
28 18 13 13 26 21 29 18 3 -4 6 -1 6 5 0 7 5 12 10 12 6 0 26 16 46 35 19 19
37 35 40 35 14 0 262 245 309 305 17 21 38 45 48 54 9 8 17 19 17 23 0 5 14
22 30 40 17 17 30 34 30 39 0 4 6 14 13 21 31 32 56 71 51 79 -3 5 -1 9 5 9 9
0 73 96 68 104 -1 2 5 12 14 22 51 58 218 412 202 428 -4 3 -1 6 5 6 9 0 26
42 37 90 2 8 26 84 32 100 7 17 11 37 16 65 2 11 6 25 9 30 3 6 10 28 14 50
10 51 11 55 14 58 1 1 3 11 4 22 1 11 6 38 11 60 4 22 9 60 10 85 2 25 6 53
10 62 4 9 4 21 1 27 -4 5 -2 12 4 16 11 7 9 33 -4 54 -6 9 -5 12 1 8 15 -9 19
50 17 252 -1 144 -4 206 -19 331 -9 69 -29 186 -34 190 -3 3 -6 10 -6 15 0 28
-28 155 -34 155 -4 0 -7 8 -8 18 -2 28 -28 120 -50 172 -3 8 -7 21 -9 29 -1 8
-6 17 -11 20 -4 3 -8 11 -8 16 -1 26 -29 94 -36 89 -5 -3 -6 1 -3 9 3 8 0 18
-5 22 -6 3 -9 11 -6 16 4 5 1 9 -4 9 -6 0 -11 6 -11 13 0 17 -40 100 -52 108
-5 3 -9 9 -8 13 2 11 -24 66 -32 66 -5 0 -8 9 -8 20 0 11 -4 20 -10 20 -5 0
-10 5 -10 11 0 6 -12 30 -27 53 -16 22 -34 53 -42 69 -8 15 -18 27 -23 27 -4
0 -8 6 -8 13 0 11 -25 45 -64 90 -9 9 -16 19 -16 22 0 6 -13 23 -41 54 -8 9
-22 27 -30 39 -14 20 -144 165 -177 199 -8 7 -18 10 -24 7 -6 -4 -8 -2 -5 3 6
10 -53 69 -152 153 -23 19 -59 50 -79 67 -20 18 -42 33 -49 33 -6 0 -13 4 -15
8 -4 10 -94 72 -99 69 -2 -1 -3 0 -2 2 4 7 -45 41 -60 41 -9 0 -17 4 -19 9 -4
12 -157 101 -174 101 -8 0 -14 3 -14 8 0 8 -124 65 -136 62 -4 -1 -10 2 -13 7
-7 11 -168 76 -187 76 -8 0 -14 4 -14 9 0 4 -8 8 -18 8 -9 0 -42 9 -71 20 -30
11 -57 18 -59 15 -3 -2 -16 2 -31 9 -14 8 -40 16 -56 19 -17 3 -77 15 -135 27
-58 12 -125 23 -150 25 -25 2 -45 4 -45 5 0 5 -333 28 -338 24z m1808 -782
c-3 -3 -11 0 -18 7 -9 10 -8 11 6 5 10 -3 15 -9 12 -12z m170 -312 c3 -6 -1
-7 -9 -4 -18 7 -21 14 -7 14 6 0 13 -4 16 -10z m236 -2797 c13 -16 12 -17 -3
-4 -17 13 -22 21 -14 21 2 0 10 -8 17 -17z m-410 -730 c13 -16 12 -17 -3 -4
-17 13 -22 21 -14 21 2 0 10 -8 17 -17z m-3574 -158 c0 -8 -4 -12 -9 -9 -5 3
-6 10 -3 15 9 13 12 11 12 -6z m868 -315 c-3 -5 -12 -10 -18 -10 -7 0 -6 4 3
10 19 12 23 12 15 0z m1106 -167 c13 -16 12 -17 -3 -4 -10 7 -18 15 -18 17 0
8 8 3 21 -13z"/>
<path d="M1080 5174 c-87 -30 -123 -52 -115 -72 4 -12 2 -12 -8 -3 -11 8 -20
6 -41 -14 -14 -13 -26 -27 -26 -31 0 -4 -11 -16 -23 -28 -30 -27 -69 -91 -60
-99 3 -4 2 -7 -4 -7 -10 0 -23 -28 -28 -62 -1 -10 -3 -19 -5 -20 -5 -8 -11
-50 -14 -105 -3 -67 23 -190 43 -203 7 -4 12 -10 11 -14 -4 -12 22 -66 31 -66
5 0 9 -5 9 -11 0 -27 149 -149 182 -149 10 0 18 -4 18 -8 0 -12 119 -36 177
-34 55 1 110 10 128 20 6 4 15 7 20 7 22 3 75 28 75 36 0 5 7 9 16 9 9 0 30
14 46 30 15 17 32 30 36 30 7 0 58 68 63 85 1 6 8 16 15 22 28 29 57 129 60
212 2 46 1 88 -3 94 -4 6 -8 23 -9 37 -2 37 -41 133 -64 158 -11 12 -20 24
-20 28 0 11 -87 94 -99 94 -6 0 -11 4 -11 9 0 8 -43 27 -64 29 -5 0 -12 5 -15
11 -4 6 -16 12 -26 14 -11 2 -28 7 -37 12 -10 4 -25 5 -33 1 -8 -3 -15 -2 -15
3 0 18 -140 8 -210 -15z"/>
<path d="M2727 4414 c-1 -1 -43 -4 -94 -7 -270 -17 -553 -115 -789 -273 -55
-36 -106 -72 -114 -79 -38 -31 -238 -234 -263 -265 -41 -51 -130 -186 -164
-250 -64 -120 -139 -323 -158 -429 -5 -27 -10 -56 -21 -106 -10 -49 -14 -397
-4 -445 5 -25 11 -65 15 -90 4 -24 8 -47 10 -50 2 -3 6 -23 9 -45 11 -70 75
-245 127 -349 145 -287 348 -509 621 -678 46 -28 108 -62 138 -76 30 -13 73
-32 95 -42 47 -21 187 -66 254 -81 25 -6 55 -13 66 -15 51 -13 224 -27 315
-27 659 1 1254 399 1518 1013 32 75 75 209 88 273 2 10 5 26 8 35 6 18 11 57
23 162 13 118 5 393 -13 421 -3 5 -18 -3 -32 -19 -85 -90 -294 -214 -384 -229
-33 -5 -38 -9 -39 -32 -5 -229 -88 -472 -229 -667 -59 -82 -202 -219 -288
-277 -233 -156 -523 -227 -797 -194 -103 13 -118 16 -190 37 -616 189 -970
810 -810 1423 101 390 398 706 775 824 57 18 81 25 150 40 43 9 136 17 223 17
63 0 97 4 97 12 0 22 89 191 129 244 22 30 68 83 102 116 l60 61 -68 13 c-37
7 -77 14 -88 16 -44 9 -271 23 -278 18z"/>
<path d="M3650 4298 c-89 -10 -165 -36 -270 -93 -39 -21 -154 -134 -187 -185
-57 -85 -93 -180 -109 -285 -6 -39 -6 -163 0 -184 3 -9 7 -33 10 -54 3 -20 17
-65 31 -100 99 -244 328 -405 583 -409 146 -3 253 28 372 107 137 91 248 251
276 399 13 65 15 83 15 146 2 226 -106 432 -291 555 -102 68 -202 100 -340
109 -14 1 -54 -1 -90 -6z"/>
</g>
</svg>
