<svg aria-hidden="true" style="position: absolute; width: 0; height: 0; overflow: hidden;" version="1.1" xmlns="http://www.w3.org/2000/svg" xmlns:xlink="http://www.w3.org/1999/xlink">
<defs>
<symbol id="icon-arrow-up" viewBox="0 0 20 20">
<title>arrow-up</title>
<path d="M15.286 17.893h-4.236v-13.862l3.804 3.768 1.492-1.482-6.354-6.317-6.354 6.317 1.492 1.482 3.804-3.768v15.969h6.354v-2.107z"></path>
</symbol>
<symbol id="icon-boomarang-left" viewBox="0 0 20 20">
<title>boomarang-left</title>
<path fill="#fff" style="fill: var(--color1, #fff); stroke: var(--color1, #fff)" stroke="#fff" stroke-linejoin="miter" stroke-linecap="butt" stroke-miterlimit="4" stroke-width="1" d="M13.304 14.486l1.047 2.64-8.744-7.351c-0.238-0.2-0.238-0.566 0-0.765l8.744-7.351-3.066 7.734 2.019 5.093z"></path>
</symbol>
<symbol id="icon-boomarang-right" viewBox="0 0 20 20">
<title>boomarang-right</title>
<path fill="#fff" style="fill: var(--color1, #fff); stroke: var(--color1, #fff)" stroke="#fff" stroke-linejoin="miter" stroke-linecap="butt" stroke-miterlimit="4" stroke-width="1.0667" d="M6.391 15.274l-1.112 2.771 9.308-7.734c0.257-0.213 0.257-0.607 0-0.82l-9.308-7.734 3.267 8.144-2.156 5.373z"></path>
</symbol>
<symbol id="icon-check" viewBox="0 0 20 20">
<title>check</title>
<path fill="#e98328" style="fill: var(--color2, #e98328)" opacity="0.7" d="M6.37 14.952l-4.703-5.717-1.667 1.929 6.37 7.715 13.63-16.533-1.667-1.929-11.963 14.535z"></path>
</symbol>
<symbol id="icon-chevron-down" viewBox="0 0 20 20">
<title>chevron-down</title>
<path fill="#fff" style="fill: var(--color1, #fff)" opacity="0.8" d="M9.997 11.859l-7.562-7.446c-0.56-0.551-1.465-0.551-2.018 0-0.56 0.551-0.554 1.441 0 1.992l8.568 8.436c0.542 0.533 1.411 0.545 1.971 0.041l8.627-8.471c0.28-0.275 0.417-0.639 0.417-0.996s-0.137-0.721-0.417-0.996c-0.56-0.551-1.465-0.551-2.018 0l-7.567 7.44z"></path>
</symbol>
<symbol id="icon-chevron-left" viewBox="0 0 20 20">
<title>chevron-left</title>
<path fill="#fff" style="fill: var(--color1, #fff)" opacity="0.8" d="M7.656 9.94l7.399 7.515c0.547 0.556 0.547 1.456 0 2.006-0.547 0.556-1.432 0.55-1.979 0l-8.383-8.514c-0.53-0.538-0.541-1.402-0.041-1.959l8.418-8.574c0.274-0.278 0.635-0.414 0.99-0.414s0.716 0.136 0.99 0.414c0.547 0.556 0.547 1.456 0 2.006l-7.394 7.52z"></path>
</symbol>
<symbol id="icon-chevron-right" viewBox="0 0 20 20">
<title>chevron-right</title>
<path fill="#fff" style="fill: var(--color1, #fff)" opacity="0.8" d="M12.096 9.94l-7.399 7.515c-0.547 0.556-0.547 1.456 0 2.006 0.547 0.556 1.432 0.55 1.979 0l8.383-8.514c0.53-0.538 0.541-1.402 0.041-1.959l-8.418-8.574c-0.274-0.278-0.635-0.414-0.99-0.414s-0.716 0.136-0.99 0.414c-0.547 0.556-0.547 1.456 0 2.006l7.394 7.52z"></path>
</symbol>
<symbol id="icon-chevron-up" viewBox="0 0 20 20">
<title>chevron-up</title>
<path fill="#fff" style="fill: var(--color1, #fff)" opacity="0.8" d="M10.003 7.391l7.562 7.446c0.56 0.551 1.465 0.551 2.018 0 0.56-0.551 0.554-1.441 0-1.992l-8.568-8.436c-0.542-0.533-1.411-0.545-1.971-0.041l-8.627 8.471c-0.28 0.275-0.417 0.639-0.417 0.996s0.137 0.721 0.417 0.996c0.56 0.551 1.465 0.551 2.018 0l7.567-7.44z"></path>
</symbol>
<symbol id="icon-clear" viewBox="0 0 20 20">
<title>clear</title>
<path fill="#fff" style="fill: var(--color1, #fff)" opacity="0.8" d="M10 0c-5.55 0-10 4.45-10 10s4.45 10 10 10c5.55 0 10-4.45 10-10s-4.45-10-10-10zM15 13.6l-1.4 1.4-3.6-3.6-3.6 3.6-1.4-1.4 3.6-3.6-3.6-3.6 1.4-1.4 3.6 3.6 3.6-3.6 1.4 1.4-3.6 3.6 3.6 3.6z"></path>
</symbol>
<symbol id="icon-close-large" viewBox="0 0 20 20">
<title>close-large</title>
<path fill="#fff" style="fill: var(--color1, #fff)" opacity="0.8" d="M3.509 1.534c-0.521-0.521-1.365-0.521-1.886 0s-0.521 1.365 0 1.886l6.536 6.536-6.536 6.536c-0.521 0.521-0.521 1.365 0 1.886s1.365 0.521 1.886 0l6.536-6.536 6.536 6.536c0.521 0.521 1.365 0.521 1.886 0s0.521-1.365 0-1.886l-6.536-6.536 6.536-6.536c0.521-0.521 0.521-1.365 0-1.886s-1.365-0.521-1.886 0l-6.536 6.536-6.536-6.536z"></path>
</symbol>
<symbol id="icon-close-small" viewBox="0 0 20 20">
<title>close-small</title>
<path fill="#fff" style="fill: var(--color1, #fff)" opacity="0.8" d="M20 2l-2-2-8 8-8-8-2 2 8 8-8 8 2 2 8-8 8 8 2-2-8-8 8-8z"></path>
</symbol>
<symbol id="icon-edit" viewBox="0 0 20 20">
<title>edit</title>
<path fill="#fff" style="fill: var(--color1, #fff)" opacity="0.8" d="M16.763 19.434h-13.527c-1.066 0-1.932-0.872-1.932-1.943v-13.604c0-1.072 0.867-1.943 1.932-1.943h1.932v-1.943h1.932v1.943h5.797v-1.943h1.932v1.943h1.932c1.066 0 1.932 0.872 1.932 1.943v13.604c0 1.072-0.867 1.943-1.932 1.943zM6.135 17.478h1.738l4.809-4.829-1.738-1.748-4.809 4.829v1.748zM13.5 11.826l-1.738-1.748 1.326-1.332 1.738 1.748-1.326 1.332zM16.763 4.859h-13.527v1.943h13.527v-1.943z"></path>
</symbol>
<symbol id="icon-email" viewBox="0 0 20 20">
<title>email</title>
<path fill="#fff" style="fill: var(--color1, #fff)" opacity="0.8" d="M11.851 10.707c-0.499 0.452-1.165 0.699-1.875 0.699s-1.376-0.252-1.87-0.699l-7.525-6.808c0.259-0.188 0.59-0.298 0.95-0.298h16.897c0.36 0 0.686 0.111 0.95 0.298l-7.525 6.808zM14.628 9.778l5.161-4.673c0.058-0.051 0.163-0.017 0.163 0.060v9.349c0 0.75-0.691 1.364-1.535 1.364h-16.882c-0.844 0-1.535-0.614-1.535-1.364v-9.349c0-0.077 0.101-0.115 0.163-0.060l5.165 4.673c0.034 0.034 0.034 0.085 0 0.119l-3.612 3.419c-0.245 0.217-0.245 0.567 0 0.784 0.12 0.107 0.283 0.162 0.441 0.162s0.321-0.055 0.441-0.162l3.597-3.406c0.038-0.034 0.101-0.034 0.139 0l0.844 0.763c0.743 0.669 1.751 1.066 2.811 1.062 1.046-0.004 2.019-0.371 2.753-1.032l0.878-0.793c0.038-0.034 0.101-0.034 0.139 0l3.597 3.406c0.12 0.107 0.283 0.162 0.441 0.162s0.321-0.055 0.441-0.162c0.245-0.217 0.245-0.567 0-0.784l-3.612-3.419c-0.038-0.034-0.038-0.085 0-0.119z"></path>
</symbol>
<symbol id="icon-external-link" viewBox="0 0 20 20">
<title>external-link</title>
<path fill="#fe7414" style="fill: var(--color3, #fe7414)" d="M15.185 15.185h-10.371v-10.37h4.63v-1.482h-4.63c-0.815 0-1.481 0.667-1.481 1.482v10.37c0 0.815 0.666 1.482 1.481 1.482h10.371c0.815 0 1.481-0.667 1.481-1.482v-4.63h-1.481v4.63zM11.111 3.333v1.482h3.037l-7.482 7.481 1.037 1.037 7.482-7.482v3.037h1.481v-5.556h-5.556z"></path>
</symbol>
<symbol id="icon-facebook" viewBox="0 0 20 20">
<title>facebook</title>
<path fill="#fff" style="fill: var(--color1, #fff)" opacity="0.8" d="M18.896 0h-17.792c-0.609 0-1.104 0.495-1.104 1.104v17.792c0 0.609 0.495 1.104 1.104 1.104h8.896v-7.917h-2.391v-2.917h2.391v-2.156c0-2.583 1.792-3.99 4.099-3.99 1.104 0 2.292 0.083 2.568 0.12v2.698h-1.838c-1.255 0-1.495 0.594-1.495 1.469v1.859h2.99l-0.391 2.917h-2.599v7.917h5.563c0.609 0 1.104-0.495 1.104-1.104v-17.792c0-0.609-0.495-1.104-1.104-1.104z"></path>
</symbol>
<symbol id="icon-filter" viewBox="0 0 20 20">
<title>filter</title>
<path fill="#fff" style="fill: var(--color1, #fff)" opacity="0.8" d="M0 1.213c0 0.302 0.096 0.594 0.269 0.817l7.317 9.361c0.173 0.224 0.269 0.515 0.269 0.817v5.571c0 0.521 0.284 0.979 0.702 1.145l2.644 1.031c0.462 0.182 0.942-0.224 0.942-0.797v-6.956c0-0.302 0.096-0.593 0.269-0.817l7.317-9.361c0.173-0.224 0.269-0.515 0.269-0.817 0-0.666-0.462-1.208-1.029-1.208h-17.942c-0.567 0.005-1.029 0.547-1.029 1.213z"></path>
</symbol>
<symbol id="icon-graph" viewBox="0 0 20 20">
<title>graph</title>
<path fill="#fff" style="fill: var(--color1, #fff)" opacity="0.8" d="M14 9.406l4.24-7.156 1.73 0.976-5.23 8.836-6.51-3.661-4.77 8.055h16.54v1.953h-20v-17.574h2v14.196l5.5-9.314 6.5 3.691z"></path>
</symbol>
<symbol id="icon-help" viewBox="0 0 20 20">
<title>help</title>
<path fill="#fff" style="fill: var(--color1, #fff)" opacity="0.8" d="M10 0c-5.523 0-10 4.477-10 10s4.477 10 10 10c5.523 0 10-4.477 10-10s-4.477-10-10-10zM9.881 5.59c0.472-0.006 0.925 0.078 1.248 0.243 0.825 0.424 1.4 1.090 1.4 2.153 0 1.020-0.364 1.56-1.295 2.27l-0.256 0.19c-0.434 0.313-0.556 0.551-0.556 0.943 0 0.384-0.311 0.694-0.694 0.694s-0.694-0.311-0.694-0.694c0-0.795 0.302-1.425 1.010-1.978l0.341-0.253c0.605-0.458 0.756-0.695 0.756-1.172 0-0.434-0.235-0.706-0.645-0.917-0.098-0.050-0.332-0.093-0.595-0.090-0.343 0.005-0.614 0.088-0.821 0.268-0.069 0.060-0.13 0.124-0.183 0.191-0.165 0.21-0.236 0.415-0.253 0.536l-0.004 0.041c-0.016 0.383-0.34 0.681-0.723 0.665s-0.681-0.339-0.665-0.723c0.016-0.378 0.162-0.881 0.553-1.378 0.107-0.136 0.229-0.264 0.366-0.382 0.482-0.417 1.064-0.597 1.711-0.606zM9.728 13.685c0.358 0 0.648-0.305 0.648-0.681s-0.29-0.681-0.648-0.681c-0.358 0-0.648 0.305-0.648 0.681s0.29 0.681 0.648 0.681z"></path>
</symbol>
<symbol id="icon-info" viewBox="0 0 20 20">
<title>info</title>
<path fill="#fff" style="fill: var(--color1, #fff)" opacity="0.8" d="M10 0c-5.519 0-10 4.481-10 10s4.481 10 10 10c5.519 0 10-4.481 10-10s-4.481-10-10-10zM11.010 15h-2.019v-6.010h2.019v6.010zM11.010 7.019h-2.019v-2.019h2.019v2.019z"></path>
</symbol>
<symbol id="icon-lightning" viewBox="0 0 11 20">
<title>lightning</title>
<path fill="#fff" style="fill: var(--color1, #fff)" opacity="0.8" d="M10.859 8.4h-4.733l2.292-8.175c0.039-0.197-0.201-0.311-0.315-0.149l-8.035 10.536c-0.166 0.245-0.009 0.586 0.276 0.586h4.733l-2.292 8.175c-0.039 0.197 0.201 0.311 0.315 0.149l8.035-10.532c0.162-0.249 0.009-0.59-0.276-0.59z"></path>
</symbol>
<symbol id="icon-link" viewBox="0 0 20 20">
<title>link</title>
<path fill="#fff" style="fill: var(--color1, #fff)" opacity="0.8" d="M14.945 0c1.35 0 2.619 0.524 3.57 1.476s1.485 2.221 1.485 3.577-0.524 2.625-1.475 3.577l-3.297 3.298c-0.389 0.394-0.836 0.712-1.331 0.957-0.298 0.149-0.615 0.264-0.937 0.351-0.303 0.077-0.615 0.13-0.927 0.154-0.125 0.010-0.25 0.014-0.375 0.014-0.178 0-0.356-0.010-0.533-0.029-1.148-0.12-2.23-0.635-3.042-1.447l-0.010-0.010c-0.557-0.558-0.923-1.13-1.139-1.803-0.135-0.423 0.115-0.875 0.543-0.986 0.384-0.101 0.778 0.101 0.918 0.471 0.173 0.457 0.437 0.875 0.788 1.226 0.596 0.596 1.398 0.957 2.249 1.010 0.009 0.001 0.018 0.001 0.027 0.002 0.071 0.004 0.134 0.008 0.194 0.008 0.159 0 0.327-0.010 0.49-0.034 0.245-0.034 0.49-0.091 0.721-0.178 0.25-0.091 0.49-0.216 0.711-0.361 0.197-0.13 0.38-0.279 0.548-0.447l3.297-3.298c0.658-0.659 1.019-1.538 1.019-2.476s-0.36-1.817-1.019-2.476c-0.658-0.659-1.538-1.019-2.475-1.019s-1.817 0.361-2.475 1.019l-3.066 3.058c-0.163 0.159-0.384 0.24-0.61 0.221-0.658-0.053-0.951-0.851-0.485-1.317l3.061-3.062c0.952-0.952 2.225-1.476 3.575-1.476zM11.091 14.096l0.058-0.005c0.706-0.067 1.11 0.788 0.61 1.293l-3.138 3.139c-0.952 0.952-2.22 1.476-3.575 1.476-1.35 0-2.619-0.524-3.57-1.471-0.951-0.952-1.475-2.221-1.475-3.577s0.524-2.625 1.466-3.582l3.297-3.298c0.389-0.394 0.836-0.712 1.331-0.957 0.298-0.149 0.615-0.264 0.937-0.351 0.009-0.003 0.019-0.005 0.028-0.008 0.042-0.012 0.082-0.023 0.126-0.031 0.259-0.063 0.519-0.101 0.778-0.12 0.12-0.010 0.245-0.014 0.37-0.014 0.178 0 0.356 0.010 0.533 0.029 0.091 0.010 0.183 0.024 0.274 0.038v0c1.043 0.168 2.018 0.659 2.768 1.409 0.596 0.591 0.971 1.221 1.182 1.971 0.111 0.389-0.115 0.798-0.505 0.918 0 0.005-0.005 0.005-0.010 0.005-0.002 0-0.005 0.001-0.007 0.002s-0.005 0.002-0.007 0.002c-0.389 0.115-0.793-0.101-0.928-0.486-0.168-0.49-0.452-0.942-0.822-1.313-0.596-0.596-1.398-0.957-2.249-1.010-0.016-0.001-0.032-0.002-0.047-0.003-0.065-0.004-0.119-0.007-0.174-0.007-0.159 0-0.327 0.010-0.49 0.034-0.245 0.034-0.49 0.091-0.721 0.178-0.25 0.091-0.49 0.216-0.711 0.361-0.197 0.13-0.38 0.279-0.548 0.447l-3.297 3.298c-0.658 0.659-1.019 1.538-1.019 2.476s0.36 1.817 1.019 2.476c0.658 0.659 1.538 1.019 2.475 1.019s1.816-0.361 2.475-1.019l3.104-3.106c0.125-0.12 0.288-0.197 0.461-0.216z"></path>
</symbol>
<symbol id="icon-linkedin" viewBox="0 0 20 20">
<title>linkedin</title>
<path fill="#fff" style="fill: var(--color1, #fff)" opacity="0.8" d="M18.401 0h-16.692c-0.912 0-1.709 0.656-1.709 1.558v16.728c0 0.907 0.797 1.714 1.709 1.714h16.687c0.917 0 1.605-0.813 1.605-1.714v-16.728c0.005-0.901-0.688-1.558-1.599-1.558zM6.2 16.671h-2.865v-8.909h2.865v8.909zM4.866 6.408h-0.021c-0.917 0-1.511-0.682-1.511-1.537 0-0.87 0.61-1.537 1.547-1.537s1.511 0.662 1.532 1.537c0 0.854-0.594 1.537-1.547 1.537zM16.671 16.671h-2.865v-4.871c0-1.167-0.417-1.964-1.453-1.964-0.792 0-1.261 0.537-1.469 1.057-0.078 0.188-0.099 0.443-0.099 0.703v5.074h-2.865v-8.909h2.865v1.24c0.417-0.594 1.068-1.448 2.584-1.448 1.881 0 3.303 1.24 3.303 3.912v5.204z"></path>
</symbol>
<symbol id="icon-menu" viewBox="0 0 20 20">
<title>menu</title>
<path fill="#fff" style="fill: var(--color1, #fff)" opacity="0.8" d="M18 0c-1.105 0-2 0.895-2 2s0.895 2 2 2c1.105 0 2-0.895 2-2s-0.895-2-2-2zM16 10c0-1.105 0.895-2 2-2s2 0.895 2 2c0 1.105-0.895 2-2 2s-2-0.895-2-2zM2 16c-1.105 0-2 0.895-2 2s0.895 2 2 2c1.105 0 2-0.895 2-2s-0.895-2-2-2zM8 18c0-1.105 0.895-2 2-2s2 0.895 2 2c0 1.105-0.895 2-2 2s-2-0.895-2-2zM16 18c0-1.105 0.895-2 2-2s2 0.895 2 2c0 1.105-0.895 2-2 2s-2-0.895-2-2zM10 8c-1.105 0-2 0.895-2 2s0.895 2 2 2c1.105 0 2-0.895 2-2s-0.895-2-2-2zM0 10c0-1.105 0.895-2 2-2s2 0.895 2 2c0 1.105-0.895 2-2 2s-2-0.895-2-2zM8 2c0-1.105 0.895-2 2-2s2 0.895 2 2c0 1.105-0.895 2-2 2s-2-0.895-2-2zM2 0c-1.105 0-2 0.895-2 2s0.895 2 2 2c1.105 0 2-0.895 2-2s-0.895-2-2-2z"></path>
</symbol>
<symbol id="icon-minus" viewBox="0 0 20 20">
<title>minus</title>
<path fill="#fff" style="fill: var(--color1, #fff)" opacity="0.8" d="M19.783 8.182h-19.565c-0.12 0-0.217 0.129-0.217 0.287v2.153c0 0.158 0.098 0.287 0.217 0.287h19.565c0.12 0 0.217-0.129 0.217-0.287v-2.153c0-0.158-0.098-0.287-0.217-0.287z"></path>
</symbol>
<symbol id="icon-orbit" viewBox="0 0 20 20">
<title>orbit</title>
<path fill="#fff" style="fill: var(--color1, #fff)" opacity="0.8" d="M2.925 5.594c-0.529-0.212-0.991-0.556-1.345-0.992-1 1.557-1.58 3.409-1.58 5.397 0 5.523 4.477 10 10 10s10-4.477 10-10c0-5.523-4.477-10-10-10-1.104 0-2.166 0.179-3.159 0.509 0.268 0.359 0.465 0.775 0.571 1.225 0.711-0.564 1.61-0.901 2.588-0.901 1.266 0 2.399 0.564 3.163 1.455 3.034 1.246 5.17 4.229 5.17 7.712 0 4.602-3.731 8.333-8.333 8.333s-8.333-3.731-8.333-8.333c0-1.618 0.461-3.127 1.258-4.406zM14.167 5c0 0.62-0.135 1.208-0.378 1.737 0.755 0.876 1.212 2.016 1.212 3.263 0 2.761-2.239 5-5 5s-5-2.239-5-5c0-1.247 0.456-2.387 1.211-3.263-0.243-0.529-0.378-1.117-0.378-1.737 0-0.070 0.002-0.139 0.005-0.209-1.527 1.222-2.505 3.101-2.505 5.209 0 3.682 2.985 6.667 6.667 6.667s6.667-2.985 6.667-6.667c0-2.108-0.978-3.987-2.505-5.209 0.003 0.069 0.005 0.139 0.005 0.209zM12.5 5c0 1.381-1.119 2.5-2.5 2.5s-2.5-1.119-2.5-2.5c0-1.381 1.119-2.5 2.5-2.5s2.5 1.119 2.5 2.5zM4.167 4.167c0.92 0 1.667-0.746 1.667-1.667s-0.746-1.667-1.667-1.667c-0.92 0-1.667 0.746-1.667 1.667s0.746 1.667 1.667 1.667z"></path>
</symbol>
<symbol id="icon-pause" viewBox="0 0 20 20">
<title>pause</title>
<path fill="#fff" style="fill: var(--color1, #fff)" opacity="0.8" d="M1.429 20h5.714v-20h-5.714v20zM12.857 0v20h5.714v-20h-5.714z"></path>
</symbol>
<symbol id="icon-pen" viewBox="0 0 20 20">
<title>pen</title>
<path fill="#fff" style="fill: var(--color1, #fff)" opacity="0.827172" d="M15.413 1.522c0.192-0.187 0.455-0.286 0.708-0.286 0.263 0 0.516 0.089 0.718 0.286l2.366 2.304c0.189 0.184 0.296 0.434 0.296 0.694s-0.106 0.51-0.296 0.694l-1.85 1.802-3.792-3.693 1.85-1.802zM0.5 15.928l11.529-11.223 3.909 3.805-11.529 11.223h-3.909v-3.805z"></path>
</symbol>
<symbol id="icon-pin" viewBox="0 0 20 20">
<title>pin</title>
<path fill="#fff" style="fill: var(--color1, #fff); stroke: var(--color1, #fff)" stroke="#fff" stroke-linejoin="miter" stroke-linecap="butt" stroke-miterlimit="4" stroke-width="0.8333" d="M13.624 9.606l-0.001 0-0.872 0.872c-1.124 1.137-1.338 2.831-0.632 4.183l-1.601 1.592-2.797-2.797-3.545 3.532c-0.215 0.215-1.17 0.984-2.144 1.644-0.485 0.328-0.954 0.616-1.323 0.791-0.087 0.041-0.164 0.074-0.23 0.098 0.025-0.067 0.057-0.144 0.098-0.232 0.173-0.37 0.46-0.841 0.787-1.327 0.657-0.978 1.423-1.934 1.638-2.149l3.532-3.532-2.796-2.808 1.601-1.592c1.344 0.707 3.050 0.492 4.176-0.646 0-0 0.001-0.001 0.001-0.001l0.867-0.867c0-0 0.001-0.001 0.001-0.001 1.139-1.127 1.352-2.833 0.646-4.186l1.591-1.591 6.791 6.781-1.601 1.592c-1.374-0.714-3.070-0.468-4.185 0.643zM0.232 19.583c0-0 0.003-0 0.009 0-0.006 0-0.009-0-0.009-0zM0.416 19.758c0.001 0.006 0.001 0.009 0 0.009s-0.001-0.003-0-0.009z"></path>
</symbol>
<symbol id="icon-play" viewBox="0 0 20 20">
<title>play</title>
<path fill="#fff" style="fill: var(--color1, #fff)" opacity="0.8" d="M4.286 0l12.857 9.286-12.857 9.286v-18.571z"></path>
</symbol>
<symbol id="icon-plus" viewBox="0 0 20 20">
<title>plus</title>
<path fill="#fff" style="fill: var(--color1, #fff)" opacity="0.8" d="M20 11.333h-8.667v8.667h-2.667v-8.667h-8.667v-2.667h8.667v-8.667h2.667v8.667h8.667v2.667z"></path>
</symbol>
<symbol id="icon-printer" viewBox="0 0 20 20">
<title>printer</title>
<path fill="#fff" style="fill: var(--color1, #fff)" opacity="0.8" d="M1.508 13.364c-1.206 0.020-1.513-0.285-1.508-1.507v-5.528c0-1.226 0.211-1.509 1.508-1.509h1.508v-2.512c-0.005-1.221 0.302-1.509 1.508-1.509h10.553c1.282 0 1.522 0.267 1.508 1.509v2.512h1.508c1.317 0 1.508 0.328 1.508 1.509v5.528c0.015 1.242-0.226 1.527-1.508 1.507h-1.508v4.021c0 1.28-0.275 1.507-1.508 1.507h-10.553c-1.232 0-1.513-0.285-1.508-1.507v-4.021h-1.508zM6.031 13.364h7.538v-1.506h-7.538v1.506zM6.031 15.876h7.538v-1.506h-7.538v1.506zM4.523 17.384h10.553v-6.533h-10.553v6.533zM16.021 8.088c0 0.452 0.362 0.814 0.814 0.814s0.814-0.362 0.814-0.814-0.362-0.814-0.814-0.814c-0.452 0-0.814 0.361-0.814 0.814zM15.076 2.308h-10.553v2.515h10.553v-2.515z"></path>
</symbol>
<symbol id="icon-sort" viewBox="0 0 20 20">
<title>sort</title>
<path fill="#fff" style="fill: var(--color1, #fff)" d="M0 3.333v2.353h20v-2.353h-20zM7.059 16.274h7.059v-2.353h-7.059v2.353zM16.471 11.569h-12.941v-2.353h12.941v2.353z"></path>
</symbol>
<symbol id="icon-sun-off" viewBox="0 0 20 20">
<title>sun-off</title>
<path fill="#fff" style="fill: var(--color1, #fff)" opacity="0.4" d="M5.236 3.918l-1.636-1.635-1.282 1.288 1.627 1.635 1.291-1.288z"></path>
<path fill="#fff" style="fill: var(--color1, #fff)" opacity="0.4" d="M2.727 9.087h-2.727v1.827h2.727v-1.827z"></path>
<path fill="#fff" style="fill: var(--color1, #fff)" opacity="0.4" d="M10.909 0h-1.818v2.694h1.818v-2.694z"></path>
<path fill="#fff" style="fill: var(--color1, #fff)" opacity="0.4" d="M17.682 3.571l-1.282-1.288-1.627 1.635 1.282 1.288 1.627-1.635z"></path>
<path fill="#fff" style="fill: var(--color1, #fff)" opacity="0.4" d="M14.764 16.082l1.627 1.644 1.282-1.288-1.636-1.635-1.273 1.279z"></path>
<path fill="#fff" style="fill: var(--color1, #fff)" opacity="0.4" d="M17.273 9.087v1.827h2.727v-1.827h-2.727z"></path>
<path fill="#161a1d" style="fill: var(--color4, #161a1d); stroke: var(--color1, #fff)" stroke="#fff" stroke-linejoin="miter" stroke-linecap="butt" stroke-miterlimit="4" stroke-width="0.8333" d="M4.962 10c0-2.794 2.261-5.063 5.038-5.063s5.038 2.268 5.038 5.063-2.261 5.063-5.038 5.063c-2.777 0-5.038-2.268-5.038-5.063z"></path>
<path fill="#fff" style="fill: var(--color1, #fff)" opacity="0.4" d="M9.091 20h1.818v-2.694h-1.818v2.694z"></path>
<path fill="#fff" style="fill: var(--color1, #fff)" opacity="0.4" d="M2.318 16.429l1.282 1.288 1.627-1.644-1.282-1.288-1.627 1.644z"></path>
</symbol>
<symbol id="icon-sun-on" viewBox="0 0 20 20">
<title>sun-on</title>
<path fill="#fff" style="fill: var(--color1, #fff)" d="M9.091 0h1.818v2.694h-1.818v-2.694zM5.236 3.918l-1.636-1.635-1.282 1.288 1.627 1.635 1.291-1.288zM2.727 9.087h-2.727v1.827h2.727v-1.827zM17.682 3.571l-1.282-1.288-1.627 1.635 1.282 1.288 1.627-1.635zM16.391 17.726l-1.627-1.644 1.273-1.278 1.636 1.635-1.282 1.288zM20 9.087h-2.727v1.827h2.727v-1.827zM4.545 10c0-3.023 2.445-5.479 5.455-5.479s5.455 2.457 5.455 5.479c0 3.023-2.446 5.479-5.455 5.479s-5.455-2.457-5.455-5.479zM9.091 20h1.818v-2.694h-1.818v2.694zM3.6 17.717l-1.282-1.288 1.627-1.644 1.282 1.288-1.627 1.644z"></path>
</symbol>
<symbol id="icon-target" viewBox="0 0 20 20">
<title>target</title>
<path fill="#fff" style="fill: var(--color1, #fff)" opacity="0.8" d="M9 0v2.070c-3.62 0.46-6.47 3.31-6.93 6.93h-2.070v2h2.070c0.46 3.62 3.31 6.47 6.93 6.93v2.070h2v-2.070c3.62-0.46 6.47-3.31 6.93-6.93h2.070v-2h-2.070c-0.46-3.62-3.31-6.47-6.93-6.93v-2.070h-2zM9 4.080v1.92h2v-1.91c2.5 0.41 4.5 2.41 4.92 4.91h-1.92v2h1.91c-0.41 2.5-2.41 4.5-4.91 4.92v-1.92h-2v1.91c-2.5-0.41-4.5-2.41-4.92-4.91h1.92v-2h-1.91c0.41-2.5 2.41-4.5 4.91-4.92zM9 10c0-0.552 0.448-1 1-1s1 0.448 1 1-0.448 1-1 1c-0.552 0-1-0.448-1-1z"></path>
</symbol>
<symbol id="icon-trash" viewBox="0 0 18 20">
<title>trash</title>
<path fill="#fff" style="fill: var(--color1, #fff)" opacity="0.8" d="M1.84 17.22c0 1.181 1.104 2.147 2.453 2.147h9.813c1.349 0 2.453-0.966 2.453-2.147v-12.378h-14.72v12.378zM18.4 1.614h-4.6l-1.54-1.614h-6.12l-1.54 1.614h-4.6v1.614h18.4v-1.614z"></path>
</symbol>
<symbol id="icon-triangle-down" viewBox="0 0 20 20">
<title>triangle-down</title>
<path fill="#fff" style="fill: var(--color1, #fff)" opacity="0.8" d="M0 5l10 10 10-10h-20z"></path>
</symbol>
<symbol id="icon-triangle-left" viewBox="0 0 20 20">
<title>triangle-left</title>
<path fill="#fff" style="fill: var(--color1, #fff)" opacity="0.8" d="M15 0l-10 10 10 10v-20z"></path>
</symbol>
<symbol id="icon-triangle-right" viewBox="0 0 20 20">
<title>triangle-right</title>
<path fill="#fff" style="fill: var(--color1, #fff)" opacity="0.8" d="M5 20l10-10-10-10v20z"></path>
</symbol>
<symbol id="icon-triangle-up" viewBox="0 0 20 20">
<title>triangle-up</title>
<path fill="#fff" style="fill: var(--color1, #fff)" opacity="0.8" d="M20 15l-10-10-10 10h20z"></path>
</symbol>
<symbol id="icon-twitter" viewBox="0 0 20 20">
<title>twitter</title>
<path fill="#fff" style="fill: var(--color1, #fff)" opacity="0.8" d="M19.296 3.86c-0.712 0.315-1.472 0.527-2.274 0.626 0.818-0.491 1.448-1.268 1.742-2.192-0.765 0.454-1.611 0.785-2.515 0.961-0.724-0.773-1.754-1.255-2.891-1.255-2.188 0-3.958 1.775-3.958 3.962 0 0.311 0.033 0.613 0.102 0.904-3.292-0.164-6.211-1.742-8.162-4.142-0.339 0.585-0.536 1.268-0.536 1.991 0 1.374 0.703 2.588 1.766 3.3-0.654-0.016-1.268-0.196-1.799-0.495v0.049c0 1.922 1.366 3.521 3.177 3.885-0.331 0.090-0.683 0.139-1.043 0.139-0.254 0-0.503-0.025-0.744-0.074 0.503 1.574 1.967 2.719 3.701 2.752-1.353 1.063-3.063 1.697-4.919 1.697-0.319 0-0.634-0.020-0.945-0.057 1.746 1.137 3.827 1.791 6.060 1.791 7.291 0 11.273-6.039 11.273-11.277 0-0.172-0.004-0.343-0.012-0.511 0.773-0.56 1.443-1.255 1.975-2.053z"></path>
</symbol>
<symbol id="icon-unpin" viewBox="0 0 20 20">
<title>unpin</title>
<path fill="none" stroke="#fff" style="stroke: var(--color1, #fff)" stroke-linejoin="miter" stroke-linecap="butt" stroke-miterlimit="4" stroke-width="0.8333" d="M13.624 9.606l-0.001 0-0.872 0.872c-1.124 1.137-1.338 2.831-0.632 4.183l-1.601 1.592-2.797-2.797-3.545 3.532c-0.215 0.215-1.17 0.984-2.144 1.644-0.485 0.328-0.954 0.616-1.323 0.791-0.087 0.041-0.164 0.074-0.23 0.098 0.025-0.067 0.057-0.144 0.098-0.232 0.173-0.37 0.46-0.841 0.787-1.327 0.657-0.978 1.423-1.934 1.638-2.149l3.532-3.532-2.796-2.808 1.601-1.592c1.344 0.707 3.050 0.492 4.176-0.646 0-0 0.001-0.001 0.001-0.001l0.867-0.867c0-0 0.001-0.001 0.001-0.001 1.139-1.127 1.352-2.833 0.646-4.186l1.591-1.591 6.791 6.781-1.601 1.592c-1.374-0.714-3.070-0.468-4.185 0.643zM0.232 19.583c0-0 0.003-0 0.009 0-0.006 0-0.009-0-0.009-0zM0.416 19.758c0.001 0.006 0.001 0.009 0 0.009s-0.001-0.003-0-0.009z"></path>
</symbol>
<symbol id="icon-world" viewBox="0 0 20 20">
<title>world</title>
<path fill="#fff" style="fill: var(--color1, #fff)" d="M10 20c-5.523 0-10-4.477-10-10s4.477-10 10-10c5.523 0 10 4.477 10 10s-4.477 10-10 10zM10.052 2.182c-0.288 0.27-1.56-0.337-2.162-0.675-0.167 0.041-0.333 0.088-0.496 0.139-0.067 0.054-0.142 0.12-0.226 0.199-0.343 0.321-0.685 0.337-1.028 0.302-1.969 0.97-3.521 2.658-4.312 4.722l0.653 0.386v1.352h0.721v-2.029c0-0.338 0-1.014 0.361-1.352s0.721-0.338 1.442-0.338c0.721 0 0.721 1.352 0.721 1.69v2.367c0 0.786 0.216 0.963 0.649 1.317 0.126 0.103 0.27 0.221 0.433 0.374l0.721 0.676 1.442 0.676c0.030 0 0.066-0 0.105-0.001 0.426-0.005 1.331-0.017 1.86 0.478 0.56 0.525 0.56 0.591 0.559 0.983l-0 0.036c0.081 0.152 0.053 0.372 0.026 0.582-0.013 0.101-0.026 0.201-0.026 0.288 0 0.337 0.224 0.49 0.717 0.826l0.004 0.003c0.162 0.111 0.347 0.145 0.52 0.177 0.249 0.046 0.471 0.088 0.562 0.346 0 0.38-0.057 0.451-0.261 0.706-0.063 0.078-0.139 0.173-0.232 0.3-0.293 0.4-0.301 0.533-0.31 0.681-0.006 0.103-0.013 0.213-0.115 0.423-0.080 0.166 0.013 0.369 0.16 0.561 1.705-0.516 3.191-1.539 4.281-2.893l0.062-0.216v-0.914c-0.12-0.338-0.772-1.082-1.061-1.352s-0.841-0.563-1.082-0.676h-1.082l-1.082 0.338c-0.24 0-0.793-0.068-1.082-0.338l-0.361-0.338v-0.338l0.361-0.338c0-0.225-0.144-0.609-0.721-0.338-0.721 0.338-1.442-0.338-1.082-1.014 0.288-0.541 1.562-0.225 2.163 0l0.361 0.676h0.361v-0.676l1.082-2.367 1.082-0.338c0.12-0.225 0.505-0.744 1.082-1.014s0.481-0.563 0.361-0.676l-0.721-1.014c-0.12-0.225-0.433-0.744-0.721-1.014-0.361-0.338-0.721-0.676-1.082-0.338-0.223 0.209-0.17 0.418-0.098 0.707 0.045 0.178 0.098 0.387 0.098 0.646 0 0.676-1.803 0-1.803-0.338 0-0.080-0.020-0.16-0.041-0.244-0.069-0.273-0.149-0.592 0.402-1.108 0.39-0.366 0.57-0.435 0.673-0.475 0.088-0.034 0.121-0.047 0.183-0.202 0.108-0.27-0.526-0.338-0.856-0.338-0.601 0-1.875 0.068-2.163 0.338z"></path>
</symbol>
<symbol id="icon-quotes" viewBox="0 0 21 20">
<title>quotes</title>
<path fill="#fe7414" style="fill: var(--color1, #fe7414)" opacity="0.8" d="M0 20l8.658-8.488v-11.512h-8.658v20z"></path>
<path fill="#fe7414" style="fill: var(--color1, #fe7414)" opacity="0.8" d="M12.121 20l8.658-8.488v-11.512h-8.658v20z"></path>
</symbol>
</defs>
</svg>
