<svg aria-hidden="true" style="position: absolute; width: 0; height: 0; overflow: hidden;" version="1.1" xmlns="http://www.w3.org/2000/svg" xmlns:xlink="http://www.w3.org/1999/xlink">
<defs>
<symbol id="icon-arrow-up" viewBox="0 0 20 20">
<title>arrow-up</title>
<path d="M15.286 17.893h-4.236v-13.862l3.804 3.768 1.492-1.482-6.354-6.317-6.354 6.317 1.492 1.482 3.804-3.768v15.969h6.354v-2.107z"></path>
</symbol>
<symbol id="icon-boomarang-left" viewBox="0 0 20 20">
<title>boomarang-left</title>
<path   stroke-linejoin="miter" stroke-linecap="butt" stroke-miterlimit="4" stroke-width="1" d="M13.304 14.486l1.047 2.64-8.744-7.351c-0.238-0.2-0.238-0.566 0-0.765l8.744-7.351-3.066 7.734 2.019 5.093z"></path>
</symbol>
<symbol id="icon-boomarang-right" viewBox="0 0 20 20">
<title>boomarang-right</title>
<path   stroke-linejoin="miter" stroke-linecap="butt" stroke-miterlimit="4" stroke-width="1.0667" d="M6.391 15.274l-1.112 2.771 9.308-7.734c0.257-0.213 0.257-0.607 0-0.82l-9.308-7.734 3.267 8.144-2.156 5.373z"></path>
</symbol>
<symbol id="icon-check" viewBox="0 0 20 20">
<title>check</title>
<path d="M6.37 14.952l-4.703-5.717-1.667 1.929 6.37 7.715 13.63-16.533-1.667-1.929-11.963 14.535z"></path>
</symbol>
<symbol id="icon-chevron-down" viewBox="0 0 20 20">
<title>chevron-down</title>
<path d="M9.997 11.859l-7.562-7.446c-0.56-0.551-1.465-0.551-2.018 0-0.56 0.551-0.554 1.441 0 1.992l8.568 8.436c0.542 0.533 1.411 0.545 1.971 0.041l8.627-8.471c0.28-0.275 0.417-0.639 0.417-0.996s-0.137-0.721-0.417-0.996c-0.56-0.551-1.465-0.551-2.018 0l-7.567 7.44z"></path>
</symbol>
<symbol id="icon-chevron-left" viewBox="0 0 20 20">
<title>chevron-left</title>
<path d="M7.656 9.94l7.399 7.515c0.547 0.556 0.547 1.456 0 2.006-0.547 0.556-1.432 0.55-1.979 0l-8.383-8.514c-0.53-0.538-0.541-1.402-0.041-1.959l8.418-8.574c0.274-0.278 0.635-0.414 0.99-0.414s0.716 0.136 0.99 0.414c0.547 0.556 0.547 1.456 0 2.006l-7.394 7.52z"></path>
</symbol>
<symbol id="icon-chevron-right" viewBox="0 0 20 20">
<title>chevron-right</title>
<path d="M12.096 9.94l-7.399 7.515c-0.547 0.556-0.547 1.456 0 2.006 0.547 0.556 1.432 0.55 1.979 0l8.383-8.514c0.53-0.538 0.541-1.402 0.041-1.959l-8.418-8.574c-0.274-0.278-0.635-0.414-0.99-0.414s-0.716 0.136-0.99 0.414c-0.547 0.556-0.547 1.456 0 2.006l7.394 7.52z"></path>
</symbol>
<symbol id="icon-chevron-up" viewBox="0 0 20 20">
<title>chevron-up</title>
<path d="M10.003 7.391l7.562 7.446c0.56 0.551 1.465 0.551 2.018 0 0.56-0.551 0.554-1.441 0-1.992l-8.568-8.436c-0.542-0.533-1.411-0.545-1.971-0.041l-8.627 8.471c-0.28 0.275-0.417 0.639-0.417 0.996s0.137 0.721 0.417 0.996c0.56 0.551 1.465 0.551 2.018 0l7.567-7.44z"></path>
</symbol>
<symbol id="icon-clear" viewBox="0 0 20 20">
<title>clear</title>
<path d="M10 0c-5.55 0-10 4.45-10 10s4.45 10 10 10c5.55 0 10-4.45 10-10s-4.45-10-10-10zM15 13.6l-1.4 1.4-3.6-3.6-3.6 3.6-1.4-1.4 3.6-3.6-3.6-3.6 1.4-1.4 3.6 3.6 3.6-3.6 1.4 1.4-3.6 3.6 3.6 3.6z"></path>
</symbol>
<symbol id="icon-close-large" viewBox="0 0 20 20">
<title>close-large</title>
<path d="M3.509 1.534c-0.521-0.521-1.365-0.521-1.886 0s-0.521 1.365 0 1.886l6.536 6.536-6.536 6.536c-0.521 0.521-0.521 1.365 0 1.886s1.365 0.521 1.886 0l6.536-6.536 6.536 6.536c0.521 0.521 1.365 0.521 1.886 0s0.521-1.365 0-1.886l-6.536-6.536 6.536-6.536c0.521-0.521 0.521-1.365 0-1.886s-1.365-0.521-1.886 0l-6.536 6.536-6.536-6.536z"></path>
</symbol>
<symbol id="icon-close-small" viewBox="0 0 20 20">
<title>close-small</title>
<path d="M20 2l-2-2-8 8-8-8-2 2 8 8-8 8 2 2 8-8 8 8 2-2-8-8 8-8z"></path>
</symbol>
<symbol id="icon-edit" viewBox="0 0 20 20">
<title>edit</title>
<path d="M16.763 19.434h-13.527c-1.066 0-1.932-0.872-1.932-1.943v-13.604c0-1.072 0.867-1.943 1.932-1.943h1.932v-1.943h1.932v1.943h5.797v-1.943h1.932v1.943h1.932c1.066 0 1.932 0.872 1.932 1.943v13.604c0 1.072-0.867 1.943-1.932 1.943zM6.135 17.478h1.738l4.809-4.829-1.738-1.748-4.809 4.829v1.748zM13.5 11.826l-1.738-1.748 1.326-1.332 1.738 1.748-1.326 1.332zM16.763 4.859h-13.527v1.943h13.527v-1.943z"></path>
</symbol>
<symbol id="icon-email" viewBox="0 0 20 20">
<title>email</title>
<path d="M11.851 10.707c-0.499 0.452-1.165 0.699-1.875 0.699s-1.376-0.252-1.87-0.699l-7.525-6.808c0.259-0.188 0.59-0.298 0.95-0.298h16.897c0.36 0 0.686 0.111 0.95 0.298l-7.525 6.808zM14.628 9.778l5.161-4.673c0.058-0.051 0.163-0.017 0.163 0.060v9.349c0 0.75-0.691 1.364-1.535 1.364h-16.882c-0.844 0-1.535-0.614-1.535-1.364v-9.349c0-0.077 0.101-0.115 0.163-0.060l5.165 4.673c0.034 0.034 0.034 0.085 0 0.119l-3.612 3.419c-0.245 0.217-0.245 0.567 0 0.784 0.12 0.107 0.283 0.162 0.441 0.162s0.321-0.055 0.441-0.162l3.597-3.406c0.038-0.034 0.101-0.034 0.139 0l0.844 0.763c0.743 0.669 1.751 1.066 2.811 1.062 1.046-0.004 2.019-0.371 2.753-1.032l0.878-0.793c0.038-0.034 0.101-0.034 0.139 0l3.597 3.406c0.12 0.107 0.283 0.162 0.441 0.162s0.321-0.055 0.441-0.162c0.245-0.217 0.245-0.567 0-0.784l-3.612-3.419c-0.038-0.034-0.038-0.085 0-0.119z"></path>
</symbol>
<symbol id="icon-external-link" viewBox="0 0 20 20">
<title>external-link</title>
<path fill="#fe7414" style="fill: var(--color3, #fe7414)" d="M15.185 15.185h-10.371v-10.37h4.63v-1.482h-4.63c-0.815 0-1.481 0.667-1.481 1.482v10.37c0 0.815 0.666 1.482 1.481 1.482h10.371c0.815 0 1.481-0.667 1.481-1.482v-4.63h-1.481v4.63zM11.111 3.333v1.482h3.037l-7.482 7.481 1.037 1.037 7.482-7.482v3.037h1.481v-5.556h-5.556z"></path>
</symbol>
<symbol id="icon-facebook" viewBox="0 0 20 20">
<title>facebook</title>
<path d="M18.896 0h-17.792c-0.609 0-1.104 0.495-1.104 1.104v17.792c0 0.609 0.495 1.104 1.104 1.104h8.896v-7.917h-2.391v-2.917h2.391v-2.156c0-2.583 1.792-3.99 4.099-3.99 1.104 0 2.292 0.083 2.568 0.12v2.698h-1.838c-1.255 0-1.495 0.594-1.495 1.469v1.859h2.99l-0.391 2.917h-2.599v7.917h5.563c0.609 0 1.104-0.495 1.104-1.104v-17.792c0-0.609-0.495-1.104-1.104-1.104z"></path>
</symbol>
<symbol id="icon-filter" viewBox="0 0 20 20">
<title>filter</title>
<path d="M0 1.213c0 0.302 0.096 0.594 0.269 0.817l7.317 9.361c0.173 0.224 0.269 0.515 0.269 0.817v5.571c0 0.521 0.284 0.979 0.702 1.145l2.644 1.031c0.462 0.182 0.942-0.224 0.942-0.797v-6.956c0-0.302 0.096-0.593 0.269-0.817l7.317-9.361c0.173-0.224 0.269-0.515 0.269-0.817 0-0.666-0.462-1.208-1.029-1.208h-17.942c-0.567 0.005-1.029 0.547-1.029 1.213z"></path>
</symbol>
<symbol id="icon-graph" viewBox="0 0 20 20">
<title>graph</title>
<path d="M14 9.406l4.24-7.156 1.73 0.976-5.23 8.836-6.51-3.661-4.77 8.055h16.54v1.953h-20v-17.574h2v14.196l5.5-9.314 6.5 3.691z"></path>
</symbol>
<symbol id="icon-help" viewBox="0 0 25 25">
<title>help</title>
<path fill-rule="evenodd" clip-rule="evenodd" d="M12.5 0C5.596 0 0 5.596 0 12.5S5.596 25 12.5 25 25 19.404 25 12.5 19.404 0 12.5 0zm-.148 6.987c.59-.007 1.156.098 1.56.304 1.03.53 1.75 1.363 1.75 2.691 0 1.275-.456 1.95-1.62 2.838l-.319.237c-.543.391-.695.688-.695 1.179a.868.868 0 11-1.736 0c0-.994.377-1.782 1.262-2.473l.426-.316c.757-.572.945-.869.945-1.465 0-.542-.293-.882-.806-1.146-.122-.062-.416-.117-.744-.113-.429.007-.767.11-1.025.335a1.735 1.735 0 00-.23.239 1.498 1.498 0 00-.315.67l-.005.051a.868.868 0 01-1.735-.072c.02-.472.202-1.1.691-1.723.134-.17.286-.33.457-.478.603-.521 1.33-.746 2.139-.758zm-.192 10.12c.448 0 .81-.381.81-.851s-.362-.85-.81-.85c-.447 0-.81.38-.81.85s.363.85.81.85z" />
</symbol>
<symbol id="icon-info" viewBox="0 0 20 20">
<title>info</title>
<path d="M10 0c-5.519 0-10 4.481-10 10s4.481 10 10 10c5.519 0 10-4.481 10-10s-4.481-10-10-10zM11.010 15h-2.019v-6.010h2.019v6.010zM11.010 7.019h-2.019v-2.019h2.019v2.019z"></path>
</symbol>
<symbol id="icon-lightning" viewBox="0 0 11 20">
<title>lightning</title>
<path d="M10.859 8.4h-4.733l2.292-8.175c0.039-0.197-0.201-0.311-0.315-0.149l-8.035 10.536c-0.166 0.245-0.009 0.586 0.276 0.586h4.733l-2.292 8.175c-0.039 0.197 0.201 0.311 0.315 0.149l8.035-10.532c0.162-0.249 0.009-0.59-0.276-0.59z"></path>
</symbol>
<symbol id="icon-link" viewBox="0 0 20 20">
<title>link</title>
<path d="M14.945 0c1.35 0 2.619 0.524 3.57 1.476s1.485 2.221 1.485 3.577-0.524 2.625-1.475 3.577l-3.297 3.298c-0.389 0.394-0.836 0.712-1.331 0.957-0.298 0.149-0.615 0.264-0.937 0.351-0.303 0.077-0.615 0.13-0.927 0.154-0.125 0.010-0.25 0.014-0.375 0.014-0.178 0-0.356-0.010-0.533-0.029-1.148-0.12-2.23-0.635-3.042-1.447l-0.010-0.010c-0.557-0.558-0.923-1.13-1.139-1.803-0.135-0.423 0.115-0.875 0.543-0.986 0.384-0.101 0.778 0.101 0.918 0.471 0.173 0.457 0.437 0.875 0.788 1.226 0.596 0.596 1.398 0.957 2.249 1.010 0.009 0.001 0.018 0.001 0.027 0.002 0.071 0.004 0.134 0.008 0.194 0.008 0.159 0 0.327-0.010 0.49-0.034 0.245-0.034 0.49-0.091 0.721-0.178 0.25-0.091 0.49-0.216 0.711-0.361 0.197-0.13 0.38-0.279 0.548-0.447l3.297-3.298c0.658-0.659 1.019-1.538 1.019-2.476s-0.36-1.817-1.019-2.476c-0.658-0.659-1.538-1.019-2.475-1.019s-1.817 0.361-2.475 1.019l-3.066 3.058c-0.163 0.159-0.384 0.24-0.61 0.221-0.658-0.053-0.951-0.851-0.485-1.317l3.061-3.062c0.952-0.952 2.225-1.476 3.575-1.476zM11.091 14.096l0.058-0.005c0.706-0.067 1.11 0.788 0.61 1.293l-3.138 3.139c-0.952 0.952-2.22 1.476-3.575 1.476-1.35 0-2.619-0.524-3.57-1.471-0.951-0.952-1.475-2.221-1.475-3.577s0.524-2.625 1.466-3.582l3.297-3.298c0.389-0.394 0.836-0.712 1.331-0.957 0.298-0.149 0.615-0.264 0.937-0.351 0.009-0.003 0.019-0.005 0.028-0.008 0.042-0.012 0.082-0.023 0.126-0.031 0.259-0.063 0.519-0.101 0.778-0.12 0.12-0.010 0.245-0.014 0.37-0.014 0.178 0 0.356 0.010 0.533 0.029 0.091 0.010 0.183 0.024 0.274 0.038v0c1.043 0.168 2.018 0.659 2.768 1.409 0.596 0.591 0.971 1.221 1.182 1.971 0.111 0.389-0.115 0.798-0.505 0.918 0 0.005-0.005 0.005-0.010 0.005-0.002 0-0.005 0.001-0.007 0.002s-0.005 0.002-0.007 0.002c-0.389 0.115-0.793-0.101-0.928-0.486-0.168-0.49-0.452-0.942-0.822-1.313-0.596-0.596-1.398-0.957-2.249-1.010-0.016-0.001-0.032-0.002-0.047-0.003-0.065-0.004-0.119-0.007-0.174-0.007-0.159 0-0.327 0.010-0.49 0.034-0.245 0.034-0.49 0.091-0.721 0.178-0.25 0.091-0.49 0.216-0.711 0.361-0.197 0.13-0.38 0.279-0.548 0.447l-3.297 3.298c-0.658 0.659-1.019 1.538-1.019 2.476s0.36 1.817 1.019 2.476c0.658 0.659 1.538 1.019 2.475 1.019s1.816-0.361 2.475-1.019l3.104-3.106c0.125-0.12 0.288-0.197 0.461-0.216z"></path>
</symbol>
<symbol id="icon-linkedin" viewBox="0 0 20 20">
<title>linkedin</title>
<path d="M18.401 0h-16.692c-0.912 0-1.709 0.656-1.709 1.558v16.728c0 0.907 0.797 1.714 1.709 1.714h16.687c0.917 0 1.605-0.813 1.605-1.714v-16.728c0.005-0.901-0.688-1.558-1.599-1.558zM6.2 16.671h-2.865v-8.909h2.865v8.909zM4.866 6.408h-0.021c-0.917 0-1.511-0.682-1.511-1.537 0-0.87 0.61-1.537 1.547-1.537s1.511 0.662 1.532 1.537c0 0.854-0.594 1.537-1.547 1.537zM16.671 16.671h-2.865v-4.871c0-1.167-0.417-1.964-1.453-1.964-0.792 0-1.261 0.537-1.469 1.057-0.078 0.188-0.099 0.443-0.099 0.703v5.074h-2.865v-8.909h2.865v1.24c0.417-0.594 1.068-1.448 2.584-1.448 1.881 0 3.303 1.24 3.303 3.912v5.204z"></path>
</symbol>
<symbol id="icon-menu" viewBox="0 0 20 20">
<title>menu</title>
<path d="M18 0c-1.105 0-2 0.895-2 2s0.895 2 2 2c1.105 0 2-0.895 2-2s-0.895-2-2-2zM16 10c0-1.105 0.895-2 2-2s2 0.895 2 2c0 1.105-0.895 2-2 2s-2-0.895-2-2zM2 16c-1.105 0-2 0.895-2 2s0.895 2 2 2c1.105 0 2-0.895 2-2s-0.895-2-2-2zM8 18c0-1.105 0.895-2 2-2s2 0.895 2 2c0 1.105-0.895 2-2 2s-2-0.895-2-2zM16 18c0-1.105 0.895-2 2-2s2 0.895 2 2c0 1.105-0.895 2-2 2s-2-0.895-2-2zM10 8c-1.105 0-2 0.895-2 2s0.895 2 2 2c1.105 0 2-0.895 2-2s-0.895-2-2-2zM0 10c0-1.105 0.895-2 2-2s2 0.895 2 2c0 1.105-0.895 2-2 2s-2-0.895-2-2zM8 2c0-1.105 0.895-2 2-2s2 0.895 2 2c0 1.105-0.895 2-2 2s-2-0.895-2-2zM2 0c-1.105 0-2 0.895-2 2s0.895 2 2 2c1.105 0 2-0.895 2-2s-0.895-2-2-2z"></path>
</symbol>
<symbol id="icon-minus" viewBox="0 0 20 20">
<title>minus</title>
<path d="M19.783 8.182h-19.565c-0.12 0-0.217 0.129-0.217 0.287v2.153c0 0.158 0.098 0.287 0.217 0.287h19.565c0.12 0 0.217-0.129 0.217-0.287v-2.153c0-0.158-0.098-0.287-0.217-0.287z"></path>
</symbol>
<symbol id="icon-orbit" viewBox="0 0 20 20">
<title>orbit</title>
<path d="M2.925 5.594c-0.529-0.212-0.991-0.556-1.345-0.992-1 1.557-1.58 3.409-1.58 5.397 0 5.523 4.477 10 10 10s10-4.477 10-10c0-5.523-4.477-10-10-10-1.104 0-2.166 0.179-3.159 0.509 0.268 0.359 0.465 0.775 0.571 1.225 0.711-0.564 1.61-0.901 2.588-0.901 1.266 0 2.399 0.564 3.163 1.455 3.034 1.246 5.17 4.229 5.17 7.712 0 4.602-3.731 8.333-8.333 8.333s-8.333-3.731-8.333-8.333c0-1.618 0.461-3.127 1.258-4.406zM14.167 5c0 0.62-0.135 1.208-0.378 1.737 0.755 0.876 1.212 2.016 1.212 3.263 0 2.761-2.239 5-5 5s-5-2.239-5-5c0-1.247 0.456-2.387 1.211-3.263-0.243-0.529-0.378-1.117-0.378-1.737 0-0.070 0.002-0.139 0.005-0.209-1.527 1.222-2.505 3.101-2.505 5.209 0 3.682 2.985 6.667 6.667 6.667s6.667-2.985 6.667-6.667c0-2.108-0.978-3.987-2.505-5.209 0.003 0.069 0.005 0.139 0.005 0.209zM12.5 5c0 1.381-1.119 2.5-2.5 2.5s-2.5-1.119-2.5-2.5c0-1.381 1.119-2.5 2.5-2.5s2.5 1.119 2.5 2.5zM4.167 4.167c0.92 0 1.667-0.746 1.667-1.667s-0.746-1.667-1.667-1.667c-0.92 0-1.667 0.746-1.667 1.667s0.746 1.667 1.667 1.667z"></path>
</symbol>
<symbol id="icon-pause" viewBox="0 0 20 20">
<title>pause</title>
<path d="M1.429 20h5.714v-20h-5.714v20zM12.857 0v20h5.714v-20h-5.714z"></path>
</symbol>
<symbol id="icon-pen" viewBox="0 0 20 20">
<title>pen</title>
<path opacity="0.827172" d="M15.413 1.522c0.192-0.187 0.455-0.286 0.708-0.286 0.263 0 0.516 0.089 0.718 0.286l2.366 2.304c0.189 0.184 0.296 0.434 0.296 0.694s-0.106 0.51-0.296 0.694l-1.85 1.802-3.792-3.693 1.85-1.802zM0.5 15.928l11.529-11.223 3.909 3.805-11.529 11.223h-3.909v-3.805z"></path>
</symbol>
<symbol id="icon-pin" viewBox="0 0 20 20">
<title>pin</title>
<path   stroke-linejoin="miter" stroke-linecap="butt" stroke-miterlimit="4" stroke-width="0.8333" d="M13.624 9.606l-0.001 0-0.872 0.872c-1.124 1.137-1.338 2.831-0.632 4.183l-1.601 1.592-2.797-2.797-3.545 3.532c-0.215 0.215-1.17 0.984-2.144 1.644-0.485 0.328-0.954 0.616-1.323 0.791-0.087 0.041-0.164 0.074-0.23 0.098 0.025-0.067 0.057-0.144 0.098-0.232 0.173-0.37 0.46-0.841 0.787-1.327 0.657-0.978 1.423-1.934 1.638-2.149l3.532-3.532-2.796-2.808 1.601-1.592c1.344 0.707 3.050 0.492 4.176-0.646 0-0 0.001-0.001 0.001-0.001l0.867-0.867c0-0 0.001-0.001 0.001-0.001 1.139-1.127 1.352-2.833 0.646-4.186l1.591-1.591 6.791 6.781-1.601 1.592c-1.374-0.714-3.070-0.468-4.185 0.643zM0.232 19.583c0-0 0.003-0 0.009 0-0.006 0-0.009-0-0.009-0zM0.416 19.758c0.001 0.006 0.001 0.009 0 0.009s-0.001-0.003-0-0.009z"></path>
</symbol>
<symbol id="icon-play" viewBox="0 0 20 20">
<title>play</title>
<path d="M4.286 0l12.857 9.286-12.857 9.286v-18.571z"></path>
</symbol>
<symbol id="icon-plus" viewBox="0 0 20 20">
<title>plus</title>
<path d="M20 11.333h-8.667v8.667h-2.667v-8.667h-8.667v-2.667h8.667v-8.667h2.667v8.667h8.667v2.667z"></path>
</symbol>
<symbol id="icon-printer" viewBox="0 0 20 20">
<title>printer</title>
<path d="M1.508 13.364c-1.206 0.020-1.513-0.285-1.508-1.507v-5.528c0-1.226 0.211-1.509 1.508-1.509h1.508v-2.512c-0.005-1.221 0.302-1.509 1.508-1.509h10.553c1.282 0 1.522 0.267 1.508 1.509v2.512h1.508c1.317 0 1.508 0.328 1.508 1.509v5.528c0.015 1.242-0.226 1.527-1.508 1.507h-1.508v4.021c0 1.28-0.275 1.507-1.508 1.507h-10.553c-1.232 0-1.513-0.285-1.508-1.507v-4.021h-1.508zM6.031 13.364h7.538v-1.506h-7.538v1.506zM6.031 15.876h7.538v-1.506h-7.538v1.506zM4.523 17.384h10.553v-6.533h-10.553v6.533zM16.021 8.088c0 0.452 0.362 0.814 0.814 0.814s0.814-0.362 0.814-0.814-0.362-0.814-0.814-0.814c-0.452 0-0.814 0.361-0.814 0.814zM15.076 2.308h-10.553v2.515h10.553v-2.515z"></path>
</symbol>
<symbol id="icon-sort" viewBox="0 0 20 20">
<title>sort</title>
<path d="M0 3.333v2.353h20v-2.353h-20zM7.059 16.274h7.059v-2.353h-7.059v2.353zM16.471 11.569h-12.941v-2.353h12.941v2.353z"></path>
</symbol>
<symbol id="icon-sun-off" viewBox="0 0 20 20">
<title>sun-off</title>
<path opacity="0.4" d="M5.236 3.918l-1.636-1.635-1.282 1.288 1.627 1.635 1.291-1.288z"></path>
<path opacity="0.4" d="M2.727 9.087h-2.727v1.827h2.727v-1.827z"></path>
<path opacity="0.4" d="M10.909 0h-1.818v2.694h1.818v-2.694z"></path>
<path opacity="0.4" d="M17.682 3.571l-1.282-1.288-1.627 1.635 1.282 1.288 1.627-1.635z"></path>
<path opacity="0.4" d="M14.764 16.082l1.627 1.644 1.282-1.288-1.636-1.635-1.273 1.279z"></path>
<path opacity="0.4" d="M17.273 9.087v1.827h2.727v-1.827h-2.727z"></path>
<path fill="#161a1d" style="fill: var(--color4, #161a1d); stroke: var(--color1, #fff)"  stroke-linejoin="miter" stroke-linecap="butt" stroke-miterlimit="4" stroke-width="0.8333" d="M4.962 10c0-2.794 2.261-5.063 5.038-5.063s5.038 2.268 5.038 5.063-2.261 5.063-5.038 5.063c-2.777 0-5.038-2.268-5.038-5.063z"></path>
<path opacity="0.4" d="M9.091 20h1.818v-2.694h-1.818v2.694z"></path>
<path opacity="0.4" d="M2.318 16.429l1.282 1.288 1.627-1.644-1.282-1.288-1.627 1.644z"></path>
</symbol>
<symbol id="icon-sun-on" viewBox="0 0 20 20">
<title>sun-on</title>
<path d="M9.091 0h1.818v2.694h-1.818v-2.694zM5.236 3.918l-1.636-1.635-1.282 1.288 1.627 1.635 1.291-1.288zM2.727 9.087h-2.727v1.827h2.727v-1.827zM17.682 3.571l-1.282-1.288-1.627 1.635 1.282 1.288 1.627-1.635zM16.391 17.726l-1.627-1.644 1.273-1.278 1.636 1.635-1.282 1.288zM20 9.087h-2.727v1.827h2.727v-1.827zM4.545 10c0-3.023 2.445-5.479 5.455-5.479s5.455 2.457 5.455 5.479c0 3.023-2.446 5.479-5.455 5.479s-5.455-2.457-5.455-5.479zM9.091 20h1.818v-2.694h-1.818v2.694zM3.6 17.717l-1.282-1.288 1.627-1.644 1.282 1.288-1.627 1.644z"></path>
</symbol>
<symbol id="icon-target" viewBox="0 0 20 20">
<title>target</title>
<path d="M9 0v2.070c-3.62 0.46-6.47 3.31-6.93 6.93h-2.070v2h2.070c0.46 3.62 3.31 6.47 6.93 6.93v2.070h2v-2.070c3.62-0.46 6.47-3.31 6.93-6.93h2.070v-2h-2.070c-0.46-3.62-3.31-6.47-6.93-6.93v-2.070h-2zM9 4.080v1.92h2v-1.91c2.5 0.41 4.5 2.41 4.92 4.91h-1.92v2h1.91c-0.41 2.5-2.41 4.5-4.91 4.92v-1.92h-2v1.91c-2.5-0.41-4.5-2.41-4.92-4.91h1.92v-2h-1.91c0.41-2.5 2.41-4.5 4.91-4.92zM9 10c0-0.552 0.448-1 1-1s1 0.448 1 1-0.448 1-1 1c-0.552 0-1-0.448-1-1z"></path>
</symbol>
<symbol id="icon-trash" viewBox="0 0 18 20">
<title>trash</title>
<path d="M1.84 17.22c0 1.181 1.104 2.147 2.453 2.147h9.813c1.349 0 2.453-0.966 2.453-2.147v-12.378h-14.72v12.378zM18.4 1.614h-4.6l-1.54-1.614h-6.12l-1.54 1.614h-4.6v1.614h18.4v-1.614z"></path>
</symbol>
<symbol id="icon-triangle-down" viewBox="0 0 20 20">
<title>triangle-down</title>
<path d="M0 5l10 10 10-10h-20z"></path>
</symbol>
<symbol id="icon-triangle-left" viewBox="0 0 20 20">
<title>triangle-left</title>
<path d="M15 0l-10 10 10 10v-20z"></path>
</symbol>
<symbol id="icon-triangle-right" viewBox="0 0 20 20">
<title>triangle-right</title>
<path d="M5 20l10-10-10-10v20z"></path>
</symbol>
<symbol id="icon-triangle-up" viewBox="0 0 20 20">
<title>triangle-up</title>
<path d="M20 15l-10-10-10 10h20z"></path>
</symbol>
<symbol id="icon-twitter" viewBox="0 0 20 20">
<title>twitter</title>
<path d="M19.296 3.86c-0.712 0.315-1.472 0.527-2.274 0.626 0.818-0.491 1.448-1.268 1.742-2.192-0.765 0.454-1.611 0.785-2.515 0.961-0.724-0.773-1.754-1.255-2.891-1.255-2.188 0-3.958 1.775-3.958 3.962 0 0.311 0.033 0.613 0.102 0.904-3.292-0.164-6.211-1.742-8.162-4.142-0.339 0.585-0.536 1.268-0.536 1.991 0 1.374 0.703 2.588 1.766 3.3-0.654-0.016-1.268-0.196-1.799-0.495v0.049c0 1.922 1.366 3.521 3.177 3.885-0.331 0.090-0.683 0.139-1.043 0.139-0.254 0-0.503-0.025-0.744-0.074 0.503 1.574 1.967 2.719 3.701 2.752-1.353 1.063-3.063 1.697-4.919 1.697-0.319 0-0.634-0.020-0.945-0.057 1.746 1.137 3.827 1.791 6.060 1.791 7.291 0 11.273-6.039 11.273-11.277 0-0.172-0.004-0.343-0.012-0.511 0.773-0.56 1.443-1.255 1.975-2.053z"></path>
</symbol>
<symbol id="icon-unpin" viewBox="0 0 26 25">
<title>unpin</title>
<path fill-rule="evenodd" clip-rule="evenodd" d="M17.8976 12.3758C19.2183 11.0591 21.2784 10.8416 22.845 11.8535L25.5 9.21294L16.2727 0L13.6321 2.64056C14.6332 4.17847 14.4591 6.2532 13.1098 7.58798L12.0217 8.67613C10.6869 10.0254 8.61222 10.1995 7.08883 9.19844L4.43379 11.839L7.93032 15.3501L3.88247 19.398C3.48406 19.7964 1.93202 21.7764 1.07555 23.2698C1.04019 23.3315 1.00602 23.3923 0.97316 23.4522C0.584644 24.1598 0.380068 24.7312 0.574557 24.9257C0.769282 25.1205 1.34033 24.9137 2.04719 24.5222C2.10691 24.4891 2.16761 24.4547 2.22913 24.4192C3.71792 23.5581 5.68958 22.0014 6.08775 21.6033L10.1501 17.5554L13.6466 21.0519L16.3017 18.4114C15.3006 16.8735 15.4747 14.8133 16.8095 13.464L17.8976 12.3758ZM14.4121 18.0869C13.7298 16.1493 14.1622 13.9182 15.6986 12.3651L15.7046 12.3591L16.7944 11.2693C18.3222 9.74614 20.5595 9.2779 22.5248 9.9682L23.2864 9.21078L16.2735 2.20885L15.5201 2.9623C16.2034 4.90318 15.7727 7.14906 14.212 8.69551L13.1325 9.77499C13.1314 9.77606 13.1304 9.77713 13.1293 9.7782C11.5862 11.3356 9.34119 11.771 7.40567 11.087L6.64422 11.8443L10.1377 15.3524L7.45814 18.032L10.1521 15.3476L13.6497 18.8452L14.4121 18.0869Z" fill="white" fill-opacity="0.7"/>
</symbol>
<symbol id="icon-world" viewBox="0 0 20 20">
<title>world</title>
<path d="M10 20c-5.523 0-10-4.477-10-10s4.477-10 10-10c5.523 0 10 4.477 10 10s-4.477 10-10 10zM10.052 2.182c-0.288 0.27-1.56-0.337-2.162-0.675-0.167 0.041-0.333 0.088-0.496 0.139-0.067 0.054-0.142 0.12-0.226 0.199-0.343 0.321-0.685 0.337-1.028 0.302-1.969 0.97-3.521 2.658-4.312 4.722l0.653 0.386v1.352h0.721v-2.029c0-0.338 0-1.014 0.361-1.352s0.721-0.338 1.442-0.338c0.721 0 0.721 1.352 0.721 1.69v2.367c0 0.786 0.216 0.963 0.649 1.317 0.126 0.103 0.27 0.221 0.433 0.374l0.721 0.676 1.442 0.676c0.030 0 0.066-0 0.105-0.001 0.426-0.005 1.331-0.017 1.86 0.478 0.56 0.525 0.56 0.591 0.559 0.983l-0 0.036c0.081 0.152 0.053 0.372 0.026 0.582-0.013 0.101-0.026 0.201-0.026 0.288 0 0.337 0.224 0.49 0.717 0.826l0.004 0.003c0.162 0.111 0.347 0.145 0.52 0.177 0.249 0.046 0.471 0.088 0.562 0.346 0 0.38-0.057 0.451-0.261 0.706-0.063 0.078-0.139 0.173-0.232 0.3-0.293 0.4-0.301 0.533-0.31 0.681-0.006 0.103-0.013 0.213-0.115 0.423-0.080 0.166 0.013 0.369 0.16 0.561 1.705-0.516 3.191-1.539 4.281-2.893l0.062-0.216v-0.914c-0.12-0.338-0.772-1.082-1.061-1.352s-0.841-0.563-1.082-0.676h-1.082l-1.082 0.338c-0.24 0-0.793-0.068-1.082-0.338l-0.361-0.338v-0.338l0.361-0.338c0-0.225-0.144-0.609-0.721-0.338-0.721 0.338-1.442-0.338-1.082-1.014 0.288-0.541 1.562-0.225 2.163 0l0.361 0.676h0.361v-0.676l1.082-2.367 1.082-0.338c0.12-0.225 0.505-0.744 1.082-1.014s0.481-0.563 0.361-0.676l-0.721-1.014c-0.12-0.225-0.433-0.744-0.721-1.014-0.361-0.338-0.721-0.676-1.082-0.338-0.223 0.209-0.17 0.418-0.098 0.707 0.045 0.178 0.098 0.387 0.098 0.646 0 0.676-1.803 0-1.803-0.338 0-0.080-0.020-0.16-0.041-0.244-0.069-0.273-0.149-0.592 0.402-1.108 0.39-0.366 0.57-0.435 0.673-0.475 0.088-0.034 0.121-0.047 0.183-0.202 0.108-0.27-0.526-0.338-0.856-0.338-0.601 0-1.875 0.068-2.163 0.338z"></path>
</symbol>
<symbol id="icon-quotes" viewBox="0 0 21 20">
<title>quotes</title>
<path fill="#fe7414" style="fill: var(--color1, #fe7414)" opacity="0.8" d="M0 20l8.658-8.488v-11.512h-8.658v20z"></path>
<path fill="#fe7414" style="fill: var(--color1, #fe7414)" opacity="0.8" d="M12.121 20l8.658-8.488v-11.512h-8.658v20z"></path>
</symbol>
<symbol id="icon-calendar" viewBox="0 0 11 12">
<title>calendar</title>
<path fill-rule="evenodd" clip-rule="evenodd" d="M9.389 11.675H1.61A1.115 1.115 0 01.5 10.557V2.735c0-.616.498-1.118 1.111-1.118h1.111V.5h1.111v1.117h3.334V.5h1.11v1.117H9.39c.613 0 1.111.502 1.111 1.118v7.822c0 .616-.498 1.118-1.111 1.118zM3.278 10.55h1l2.764-2.777-1-1.005-2.764 2.777v1.005zM7.513 7.3l-1-1.005.763-.766.999 1.005-.762.766zm1.876-4.006H1.61V4.41H9.39V3.294z" fill="currentColor"/>
</symbol>
<symbol id="icon-pan-hand" viewBox="0 0 17 20">
<title>pan-hand</title>
<path fill="#fe7414" style="fill: var(--color1, #fe7414)" d="M6.891 3.177c0.697 0 1.261 0.564 1.261 1.261s-0.564 1.261-1.261 1.261c-0.697 0-1.261-0.564-1.261-1.261s0.564-1.261 1.261-1.261zM6.891 2.547c-1.043 0-1.891 0.848-1.891 1.891s0.848 1.891 1.891 1.891 1.891-0.848 1.891-1.891c0-1.043-0.848-1.891-1.891-1.891z"></path>
<path fill="#d1d1d1" style="fill: var(--color2, #d1d1d1)" d="M13.879 11.713c-0.18-0.838-1.125-0.842-1.497-0.671-0.069 0.032-0.151 0.006-0.186-0.063-0.113-0.227-0.473-0.542-0.895-0.624-0.385-0.076-0.612-0.054-0.968 0.145-0.274-0.199-0.454-0.605-0.965-0.706-0.441-0.088-0.854-0.003-1.072 0.189-0.009-0.101-0.58-5.604-0.58-5.608-0.054-0.476-0.457-0.7-0.854-0.687-0.306 0.009-0.612 0.164-0.75 0.451-0.003 0.006-0.006 0.009-0.006 0.016-0.044 0.098-0.069 0.211-0.069 0.34l-0.072 6.124c-0.63 2.522-1.387 3.433-1.346 4.315 0.013 0.299 0.069 0.593 0.173 0.873 0.199 0.53 1.667 3.521 1.667 3.521v0.671h6.563v-0.671c0 0 0.857-3.193 0.857-3.723 0-0.003 0.205-2.944 0-3.893z"></path>
<path fill="#fe7414" style="fill: var(--color1, #fe7414)" d="M8.246 2.266c0.154 0.098 0.299 0.211 0.435 0.347s0.249 0.281 0.347 0.435l0.892-0.892 0.908 0.889 0.438-3.045-3.035 0.498 0.902 0.886-0.886 0.883z"></path>
<path fill="#fe7414" style="fill: var(--color1, #fe7414)" d="M5.548 6.525c-0.154-0.098-0.299-0.211-0.435-0.347s-0.249-0.281-0.347-0.435l-0.892 0.892-0.908-0.889-0.435 3.048 3.035-0.498-0.902-0.886 0.883-0.886z"></path>
<path fill="#fe7414" style="fill: var(--color1, #fe7414)" d="M10.796 5.727l-0.886 0.902-0.886-0.886c-0.098 0.154-0.211 0.299-0.347 0.435s-0.281 0.249-0.435 0.347l0.892 0.892-0.889 0.908 3.045 0.438-0.495-3.035z"></path>
<path fill="#fe7414" style="fill: var(--color1, #fe7414)" d="M4.769 3.048c0.098-0.154 0.211-0.299 0.347-0.435s0.281-0.249 0.435-0.347l-0.892-0.892 0.889-0.908-3.048-0.435 0.498 3.035 0.886-0.902 0.886 0.883z"></path>
</symbol>
<symbol id="icon-pan-mouse" viewBox="0 0 17 20">
<title>pan-mouse</title>
<path fill="#d1d1d1" style="fill: var(--color2, #d1d1d1)" d="M3.147 7.053v4.443c0 2.852 2.319 5.171 5.171 5.171s5.171-2.319 5.171-5.171v-4.443c-1.651 0.258-3.388 0.387-5.171 0.387s-3.52-0.129-5.171-0.387z"></path>
<path fill="#d1d1d1" style="fill: var(--color2, #d1d1d1)" d="M7.769 2.297v2.646c0 0.102 0.085 0.187 0.187 0.187h0.786c0.102 0 0.187-0.085 0.187-0.187v-2.646c0-0.102-0.085-0.187-0.187-0.187h-0.786c-0.102-0.003-0.187 0.082-0.187 0.187z"></path>
<path fill="#fe7414" style="fill: var(--color1, #fe7414)" d="M7.936 5.943c-0.561-0.080-0.992-0.561-0.992-1.143v-2.363c0-0.582 0.431-1.063 0.992-1.143v-1.294h-1.701c-1.684 0-3.055 1.371-3.055 3.055v3.165c1.519 0.245 3.118 0.376 4.759 0.396v-0.673h-0.003z"></path>
<path fill="#d1d1d1" style="fill: var(--color2, #d1d1d1)" d="M10.577 0h-1.816v1.297c0.561 0.080 0.992 0.561 0.992 1.143v2.363c0 0.583-0.431 1.063-0.992 1.143v0.673c1.64-0.019 3.239-0.151 4.759-0.396v-3.281c0-1.624-1.322-2.943-2.943-2.943z"></path>
</symbol>
<symbol id="icon-rotate-hand" viewBox="0 0 17 20">
<title>rotate-hand</title>
<path fill="#fe7414" style="fill: var(--color1, #fe7414)" d="M12.804 5.79c0.179-1.176-0.061-2.381-0.703-3.415-0.8-1.282-2.13-2.133-3.651-2.333-2.021-0.27-4.033 0.754-5.017 2.542-0.764 1.391-0.845 3.015-0.221 4.454 0.067 0.158 0.242 0.233 0.403 0.179l0.276-0.115-0.067-0.27c-0.224-0.918-0.194-1.878 0.082-2.703 0.276-0.818 0.797-1.53 1.518-2.066 0.903-0.724 2.063-1.006 3.193-0.77 0.164 0.030 0.324 0.076 0.482 0.127 0.030 0.009 0.061 0.024 0.088 0.036l0.030 0.015c1.669 0.648 2.627 2.339 2.403 4.051l-1.294-0.288 1.288 2.939 2.415-2.112-1.224-0.273z"></path>
<path fill="#fe7414" style="fill: var(--color1, #fe7414)" d="M7.651 3.572c0.67 0 1.212 0.542 1.212 1.212s-0.542 1.212-1.212 1.212c-0.67 0-1.212-0.542-1.212-1.212s0.545-1.212 1.212-1.212zM7.651 2.967c-1.003 0-1.818 0.815-1.818 1.818s0.815 1.818 1.818 1.818c1.003 0 1.818-0.815 1.818-1.818s-0.812-1.818-1.818-1.818z"></path>
<path fill="#fe7414" style="fill: var(--color1, #fe7414)" d="M4.318 9.329c0.67 0 1.212 0.542 1.212 1.212s-0.542 1.212-1.212 1.212c-0.67 0-1.212-0.542-1.212-1.212s0.545-1.212 1.212-1.212zM4.318 8.723c-1.003 0-1.818 0.815-1.818 1.818s0.815 1.818 1.818 1.818 1.818-0.815 1.818-1.818c0-1.003-0.812-1.818-1.818-1.818z"></path>
<path fill="#d1d1d1" style="fill: var(--color2, #d1d1d1)" d="M14.495 12.032c-0.173-0.806-1.082-0.809-1.439-0.645-0.067 0.030-0.145 0.006-0.179-0.061-0.109-0.218-0.454-0.521-0.86-0.6-0.37-0.073-0.588-0.052-0.93 0.139-0.264-0.191-0.436-0.582-0.927-0.679-0.424-0.085-0.821-0.003-1.030 0.182-0.009-0.097-0.557-5.387-0.557-5.39-0.052-0.458-0.439-0.673-0.821-0.661-0.294 0.009-0.588 0.158-0.721 0.433-0.003 0.006-0.006 0.009-0.006 0.015-0.042 0.094-0.067 0.203-0.067 0.327v0.112c0 0.009-0.003 0.018-0.003 0.030l-0.136 6.014c-0.003 0.006-0.003 0.012-0.006 0.021 0.003 0.006 0.003 0.012 0.003 0.018l-0.042 1.836-0.006 0.297c-0.106 0.064-0.209 0.082-0.309 0.064-0.173-0.030-0.327-0.167-0.418-0.361 0 0-1.006-2.572-1.009-2.575-0.164-0.421-0.567-0.515-0.894-0.394-0.164 0.061-0.312 0.179-0.397 0.336-0.082 0.155-0.109 0.351-0.036 0.573l1.018 3.766c0.167 0.618 0.439 1.2 0.806 1.721l0.691 0.985 0.976 1.472c0.103 0.209 0.17 0.345 0.17 0.345v0.645h6.311v-0.645c0 0 0.824-3.069 0.824-3.578-0.003-0.006 0.191-2.83-0.003-3.745z"></path>
</symbol>
<symbol id="icon-rotate-mouse" viewBox="0 0 17 20">
<title>rotate-mouse</title>
<path fill="#d1d1d1" style="fill: var(--color2, #d1d1d1)" d="M3.333 7.053v4.443c0 2.852 2.319 5.171 5.171 5.171s5.171-2.319 5.171-5.171v-4.443c-1.651 0.258-3.388 0.387-5.171 0.387s-3.52-0.129-5.171-0.387z"></path>
<path fill="#fe7414" style="fill: var(--color1, #fe7414)" d="M7.955 2.297v2.646c0 0.102 0.085 0.187 0.187 0.187h0.786c0.102 0 0.187-0.085 0.187-0.187v-2.646c0-0.102-0.085-0.187-0.187-0.187h-0.786c-0.102-0.003-0.187 0.082-0.187 0.187z"></path>
<path fill="#d1d1d1" style="fill: var(--color2, #d1d1d1)" d="M8.122 5.943c-0.561-0.080-0.992-0.561-0.992-1.143v-2.363c0-0.582 0.431-1.063 0.992-1.143v-1.294h-1.701c-1.684 0-3.055 1.371-3.055 3.055v3.165c1.519 0.245 3.118 0.376 4.759 0.396v-0.673h-0.003z"></path>
<path fill="#d1d1d1" style="fill: var(--color2, #d1d1d1)" d="M10.763 0h-1.816v1.297c0.561 0.080 0.992 0.561 0.992 1.143v2.363c0 0.583-0.431 1.063-0.992 1.143v0.673c1.64-0.019 3.239-0.151 4.759-0.396v-3.281c0-1.624-1.322-2.943-2.943-2.943z"></path>
</symbol>
<symbol id="icon-tilt-hand" viewBox="0 0 17 20">
<title>tilt-hand</title>
<path fill="#fe7414" style="fill: var(--color1, #fe7414)" d="M8.608 0.125c-2.046-0.361-3.734 0.045-5.748 1.389l-0.805-0.954-0.805 3.315 3.405-0.229-0.738-0.876c0.177-0.148 0.358-0.29 0.544-0.419 1.55-1.079 2.7-1.517 4.095-1.563l0.303-0.016 0.032-0.593-0.283-0.055z"></path>
<path fill="#fe7414" style="fill: var(--color1, #fe7414)" d="M9.082 4.887c-0.255 0.374-0.696 0.606-1.176 0.561-0.709-0.064-1.231-0.693-1.166-1.401s0.693-1.231 1.401-1.166c0.254 0.023 0.487 0.122 0.673 0.271 0.071-0.213 0.174-0.406 0.306-0.577-0.264-0.184-0.58-0.303-0.921-0.335-1.063-0.097-2.004 0.686-2.101 1.749s0.686 2.004 1.749 2.101c0.683 0.061 1.311-0.238 1.704-0.744-0.184-0.122-0.342-0.28-0.47-0.457z"></path>
<path fill="#fe7414" style="fill: var(--color1, #fe7414)" d="M10.822 1.833c-0.683-0.061-1.311 0.238-1.704 0.744 0.18 0.126 0.338 0.28 0.467 0.461 0.254-0.374 0.696-0.606 1.176-0.561 0.709 0.064 1.231 0.693 1.166 1.401s-0.693 1.231-1.401 1.166c-0.255-0.023-0.487-0.122-0.673-0.271-0.071 0.213-0.174 0.406-0.306 0.577 0.264 0.184 0.58 0.303 0.921 0.335 1.063 0.097 2.004-0.686 2.101-1.749 0.1-1.066-0.683-2.007-1.746-2.104z"></path>
<path fill="#fe7414" style="fill: var(--color1, #fe7414)" d="M9.362 3.64c0.019-0.226 0.103-0.432 0.226-0.606-0.129-0.177-0.287-0.335-0.467-0.461-0.132 0.171-0.238 0.364-0.306 0.577 0.332 0.261 0.535 0.68 0.493 1.131-0.019 0.226-0.103 0.432-0.226 0.606 0.129 0.177 0.287 0.335 0.467 0.461 0.132-0.171 0.238-0.364 0.306-0.577-0.332-0.261-0.532-0.68-0.493-1.131z"></path>
<path fill="#d1d1d1" style="fill: var(--color2, #d1d1d1)" d="M15.091 11.53c-0.361-0.802-1.15-0.86-1.53-0.686-0.071 0.032-0.155 0.006-0.19-0.064-0.116-0.232-0.483-0.554-0.915-0.638-0.306-0.061-0.515-0.058-0.767 0.042-0.068-2.030-0.209-6.514-0.209-6.518-0.010-0.168-0.061-0.309-0.142-0.422-0.016-0.019-0.032-0.039-0.048-0.058-0.158-0.177-0.396-0.267-0.641-0.274-0.316-0.006-0.635 0.129-0.793 0.412-0.003 0.006-0.006 0.010-0.010 0.016-0.052 0.097-0.084 0.213-0.093 0.345 0 0-0.219 4.391-0.3 6.025-0.026 0.016-0.048 0.032-0.071 0.052-0.003-0.035-0.081-0.786-0.18-1.733-0.164-1.704-0.361-3.737-0.361-3.74-0.006-0.071-0.026-0.135-0.045-0.193-0.003-0.042-0.006-0.064-0.006-0.064-0.055-0.486-0.467-0.715-0.873-0.702-0.313 0.010-0.625 0.168-0.767 0.461-0.003 0.006-0.006 0.010-0.006 0.016-0.045 0.1-0.071 0.216-0.071 0.348l-0.074 6.26c-0.644 2.577-1.418 3.508-1.376 4.411 0.013 0.306 0.071 0.606 0.177 0.892 0.203 0.541 1.704 3.599 1.704 3.599v0.686h6.708v-0.686c0 0 0.876-3.264 0.876-3.805l0.003-3.979z"></path>
</symbol>
<symbol id="icon-zoom-hand" viewBox="0 0 17 20">
<title>zoom-hand</title>
<path fill="#fe7414" style="fill: var(--color1, #fe7414)" d="M6.208 9.766c0.63 0 1.141 0.511 1.141 1.141s-0.511 1.141-1.141 1.141c-0.63 0-1.141-0.511-1.141-1.141s0.511-1.141 1.141-1.141zM6.208 9.195c-0.944 0-1.711 0.767-1.711 1.711s0.767 1.711 1.711 1.711c0.944 0 1.711-0.767 1.711-1.711s-0.767-1.711-1.711-1.711z"></path>
<path fill="#fe7414" style="fill: var(--color1, #fe7414)" d="M9.345 4.061c0.63 0 1.141 0.511 1.141 1.141s-0.511 1.141-1.141 1.141c-0.63 0-1.141-0.511-1.141-1.141s0.511-1.141 1.141-1.141zM9.345 3.491c-0.944 0-1.711 0.767-1.711 1.711s0.767 1.711 1.711 1.711c0.944 0 1.711-0.767 1.711-1.711s-0.767-1.711-1.711-1.711z"></path>
<path fill="#d1d1d1" style="fill: var(--color2, #d1d1d1)" d="M15.674 12.082c-0.163-0.759-1.018-0.762-1.355-0.608-0.063 0.029-0.137 0.006-0.168-0.057-0.103-0.205-0.428-0.491-0.81-0.565-0.348-0.068-0.553-0.048-0.876 0.131-0.248-0.18-0.411-0.548-0.873-0.639-0.399-0.080-0.773-0.003-0.97 0.171-0.009-0.091-0.525-5.071-0.525-5.074-0.048-0.431-0.414-0.633-0.773-0.622-0.277 0.009-0.553 0.148-0.679 0.408-0.003 0.006-0.006 0.009-0.006 0.014-0.040 0.088-0.063 0.191-0.063 0.308v0.106c0 0.009-0.003 0.017-0.003 0.029l-0.128 5.662c-0.003 0.006-0.003 0.011-0.006 0.020 0.003 0.006 0.003 0.011 0.003 0.017l-0.040 1.728-0.006 0.28c-0.1 0.060-0.197 0.077-0.291 0.060-0.163-0.028-0.308-0.157-0.394-0.339 0 0-0.947-2.422-0.95-2.424-0.154-0.396-0.533-0.485-0.841-0.371-0.154 0.057-0.294 0.168-0.374 0.317-0.077 0.145-0.103 0.331-0.034 0.539l0.958 3.545c0.157 0.582 0.414 1.129 0.759 1.62l0.65 0.927 0.918 1.386c0.097 0.197 0.16 0.325 0.16 0.325v0.608h5.941v-0.608c0 0 0.776-2.889 0.776-3.369-0.003-0.009 0.183-2.667-0.003-3.525z"></path>
<path fill="#fe7414" style="fill: var(--color1, #fe7414)" d="M9.607 2.48l0.068-0.269-0.233-0.106c-1.317-0.592-2.372-0.566-3.485 0.071l-0.692-0.875-0.805 2.911 3.018-0.106-0.641-0.81c0.058-0.045 0.119-0.091 0.18-0.13 0.795-0.517 1.422-0.651 2.232-0.483 0.16 0.034 0.311-0.054 0.358-0.202z"></path>
<path fill="#fe7414" style="fill: var(--color1, #fe7414)" d="M4.657 6.099l-2.911 0.802 0.869 0.687c-0.644 1.112-0.662 2.17-0.072 3.489 0.064 0.145 0.223 0.213 0.373 0.165l0.257-0.103-0.052-0.251c-0.169-0.812-0.031-1.438 0.487-2.233 0.040-0.060 0.084-0.12 0.13-0.178l0.811 0.641 0.109-3.019z"></path>
</symbol>
<symbol id="icon-zoom-mouse" viewBox="0 0 17 20">
<title>zoom-mouse</title>
<path fill="#d1d1d1" style="fill: var(--color2, #d1d1d1)" d="M3.333 7.053v4.443c0 2.852 2.319 5.171 5.171 5.171s5.171-2.319 5.171-5.171v-4.443c-1.651 0.258-3.388 0.387-5.171 0.387s-3.52-0.129-5.171-0.387z"></path>
<path fill="#d1d1d1" style="fill: var(--color2, #d1d1d1)" d="M7.955 2.297v2.646c0 0.102 0.085 0.187 0.187 0.187h0.786c0.102 0 0.187-0.085 0.187-0.187v-2.646c0-0.102-0.085-0.187-0.187-0.187h-0.786c-0.102-0.003-0.187 0.082-0.187 0.187z"></path>
<path fill="#d1d1d1" style="fill: var(--color2, #d1d1d1)" d="M8.122 5.943c-0.561-0.080-0.992-0.561-0.992-1.143v-2.363c0-0.582 0.431-1.063 0.992-1.143v-1.294h-1.701c-1.684 0-3.055 1.371-3.055 3.055v3.165c1.519 0.245 3.118 0.376 4.759 0.396v-0.673h-0.003z"></path>
<path fill="#fe7414" style="fill: var(--color1, #fe7414)" d="M10.763 0h-1.816v1.297c0.561 0.080 0.992 0.561 0.992 1.143v2.363c0 0.583-0.431 1.063-0.992 1.143v0.673c1.64-0.019 3.239-0.151 4.759-0.396v-3.281c0-1.624-1.322-2.943-2.943-2.943z"></path>
</symbol>
<symbol id="icon-reset" viewBox="0 0 20 21" fill="currentColor">
<path fill-rule="evenodd" clip-rule="evenodd" d="M19.781 10.853C20.073 10.561 20.073 10.0876 19.781 9.7956C19.489 9.50362 19.0156 9.50362 18.7237 9.7956L16.3996 12.1197C16.4306 11.658 16.4486 11.0705 16.4486 10.3243C16.4486 8.69766 15.9663 7.10758 15.0626 5.7551C14.1589 4.40262 12.8744 3.34849 11.3716 2.72602C9.86881 2.10354 8.21518 1.94067 6.61982 2.25801C5.02446 2.57534 3.55903 3.35863 2.40885 4.50882C1.25866 5.65901 0.475368 7.12444 0.158031 8.71979C-0.159304 10.3152 0.00356441 11.9688 0.626041 13.4716C1.24852 14.9744 2.30265 16.2588 3.65513 17.1625C5.00761 18.0662 6.59769 18.5486 8.2243 18.5486C8.63722 18.5486 8.97196 18.2138 8.97196 17.8009C8.97196 17.388 8.63722 17.0532 8.2243 17.0532C6.89344 17.0532 5.59246 16.6586 4.48589 15.9192C3.37931 15.1798 2.51684 14.1289 2.00754 12.8993C1.49824 11.6698 1.36499 10.3168 1.62463 9.01152C1.88427 7.70623 2.52514 6.50724 3.4662 5.56618C4.40726 4.62511 5.60625 3.98424 6.91154 3.7246C8.21684 3.46496 9.56981 3.59822 10.7994 4.10752C12.0289 4.61682 13.0798 5.47929 13.8192 6.58586C14.5586 7.69243 14.9533 8.99341 14.9533 10.3243C14.9533 11.2824 14.9225 11.9339 14.8788 12.37L12.3044 9.7956C12.0124 9.50362 11.539 9.50362 11.247 9.7956C10.955 10.0876 10.955 10.561 11.247 10.853L14.9853 14.5913C15.2773 14.8833 15.7507 14.8833 16.0427 14.5913L19.781 10.853Z" />
</symbol>
<symbol id="icon-share" viewBox="0 0 12 12" fill="currentColor">
<path d="M6.77583 3.87698V1.211L9.67527 4.11044L12 6.43517L9.634 8.40693L6.77583 10.7889V8.18025C1.75802 7.80204 3.8147e-06 10.7058 3.8147e-06 10.7058C3.8147e-06 8.89664 0.149072 7.01912 1.57138 5.59743C3.22468 3.94351 5.61902 3.82647 6.77583 3.87698Z" />
</symbol>
</defs>
</svg>
